<svg id="svg" version="1.1" xmlns="http://www.w3.org/2000/svg" xmlns:xlink="http://www.w3.org/1999/xlink" width="400" height="400" viewBox="0, 0, 400,400"><g id="svgg"><path id="path0" d="M174.673 70.632 C 169.673 72.413,167.837 78.340,170.910 82.777 C 174.052 87.313,182.827 86.770,185.424 81.878 C 188.964 75.209,182.069 67.997,174.673 70.632 M95.000 92.822 C 91.355 93.657,88.678 94.973,84.780 97.845 C 84.074 98.364,84.048 98.337,83.522 96.525 C 82.740 93.835,82.114 93.588,76.438 93.725 C 72.168 93.828,71.907 93.874,71.299 94.626 C 70.291 95.872,70.467 164.453,71.480 165.194 C 72.341 165.823,84.312 165.888,84.933 165.267 C 85.229 164.971,85.333 161.894,85.333 153.489 C 85.333 140.756,85.234 141.337,87.188 142.682 C 100.385 151.761,116.793 143.701,120.217 126.458 C 124.424 105.272,112.144 88.892,95.000 92.822 M224.025 92.696 C 220.857 93.317,214.839 95.882,212.290 97.698 C 211.008 98.610,210.891 98.540,210.160 96.423 C 209.272 93.853,208.845 93.678,203.454 93.672 C 199.634 93.667,198.973 93.748,198.287 94.304 L 197.500 94.941 197.406 118.720 C 197.309 143.285,197.318 143.604,198.191 144.477 C 198.969 145.255,210.698 145.254,211.476 144.476 C 211.940 144.012,212.000 141.797,212.000 125.131 L 212.000 106.310 213.583 105.624 C 218.284 103.588,224.573 103.053,226.540 104.522 C 228.975 106.340,228.815 104.966,229.000 125.551 C 229.161 143.380,229.190 144.071,229.814 144.527 C 230.810 145.256,242.408 145.211,243.143 144.476 C 243.607 144.013,243.667 141.815,243.667 125.333 C 243.667 109.008,243.730 106.651,244.180 106.201 C 246.208 104.173,256.152 102.994,258.223 104.535 C 260.571 106.281,260.482 105.508,260.667 125.699 C 260.802 140.449,260.920 144.003,261.291 144.449 C 262.017 145.324,273.984 145.272,274.782 144.390 C 275.474 143.626,275.631 106.089,274.955 102.933 C 272.414 91.059,256.770 88.644,242.810 97.972 L 241.787 98.656 240.781 97.229 C 237.981 93.256,230.914 91.344,224.025 92.696 M302.833 92.867 C 292.441 95.176,285.896 102.581,284.154 114.000 C 280.361 138.856,297.726 152.503,322.953 144.493 C 326.818 143.266,327.000 142.989,327.000 138.327 C 327.000 132.968,326.989 132.959,322.034 134.144 C 307.803 137.547,299.356 134.649,297.489 125.724 C 296.928 123.042,296.817 123.150,299.642 123.617 C 314.590 126.086,326.676 121.400,328.820 112.304 C 331.912 99.185,318.740 89.333,302.833 92.867 M155.304 93.815 C 152.742 94.522,149.717 96.349,147.165 98.733 C 144.196 101.505,144.551 101.580,143.665 97.994 C 142.593 93.656,142.483 93.591,136.398 93.727 C 132.115 93.822,131.562 93.901,131.139 94.480 C 130.315 95.610,130.447 143.698,131.276 144.448 C 132.355 145.425,144.113 145.261,144.814 144.259 C 145.268 143.612,145.333 141.329,145.333 126.141 L 145.333 108.764 147.750 108.064 C 151.549 106.964,153.805 106.667,158.354 106.667 C 163.833 106.667,163.500 107.103,163.500 99.922 C 163.500 94.721,163.449 94.243,162.853 93.806 C 162.038 93.211,157.476 93.216,155.304 93.815 M171.667 94.098 L 170.833 94.520 170.748 119.234 C 170.671 141.373,170.717 144.003,171.188 144.474 C 171.993 145.278,184.039 145.256,184.709 144.449 C 185.088 143.993,185.167 139.677,185.167 119.419 L 185.167 94.941 184.380 94.304 C 183.401 93.511,173.155 93.345,171.667 94.098 M312.533 103.302 C 315.409 104.608,316.585 108.560,315.014 111.639 C 313.536 114.537,307.679 115.733,300.176 114.668 L 297.269 114.255 297.499 112.724 C 298.678 104.859,305.941 100.308,312.533 103.302 M99.941 104.340 C 108.610 108.069,108.239 131.035,99.456 134.321 C 96.082 135.584,90.802 135.093,86.994 133.164 L 85.333 132.322 85.333 119.227 L 85.333 106.133 86.917 105.346 C 91.092 103.273,96.491 102.855,99.941 104.340 M246.256 193.242 C 246.855 193.316,247.755 193.314,248.256 193.238 C 248.757 193.162,248.267 193.101,247.167 193.103 C 246.067 193.105,245.657 193.167,246.256 193.242 M228.479 200.083 L 227.500 201.167 228.583 200.188 C 229.179 199.649,229.667 199.162,229.667 199.104 C 229.667 198.847,229.392 199.074,228.479 200.083 M179.417 249.563 C 179.737 249.647,180.262 249.647,180.583 249.563 C 180.904 249.479,180.642 249.411,180.000 249.411 C 179.358 249.411,179.096 249.479,179.417 249.563 M304.667 269.889 C 293.002 271.047,280.000 276.761,280.000 280.729 C 280.000 282.282,280.855 282.462,285.450 281.875 C 299.847 280.035,310.414 280.220,313.895 282.372 C 317.710 284.729,316.508 293.302,309.660 312.589 C 307.315 319.194,307.178 320.048,308.360 320.681 C 310.643 321.903,317.540 313.922,321.631 305.324 C 326.804 294.452,329.796 278.440,327.488 273.978 C 325.941 270.986,314.416 268.921,304.667 269.889 M72.358 273.545 C 70.762 275.573,73.975 279.283,85.333 288.531 C 146.054 337.966,232.125 343.546,295.500 302.156 C 306.315 295.092,308.752 292.096,306.034 289.203 C 304.086 287.129,303.103 287.225,296.356 290.144 C 226.143 320.527,146.181 315.110,79.481 275.453 C 74.380 272.420,73.440 272.168,72.358 273.545 " stroke="none" fill="#05ace3" fill-rule="evenodd"></path><path id="path1" d="M0.000 200.000 L 0.000 400.000 200.000 400.000 L 400.000 400.000 400.000 200.000 L 400.000 0.000 200.000 0.000 L 0.000 0.000 0.000 200.000 M182.289 71.228 C 187.157 73.717,187.722 81.028,183.299 84.281 C 179.673 86.948,173.260 86.169,170.910 82.777 C 165.811 75.414,174.075 67.027,182.289 71.228 M105.481 92.995 C 124.637 97.894,126.693 135.061,108.309 144.126 C 101.796 147.338,93.090 146.742,87.188 142.682 C 85.234 141.337,85.333 140.756,85.333 153.489 C 85.333 161.894,85.229 164.971,84.933 165.267 C 84.312 165.888,72.341 165.823,71.480 165.194 C 70.467 164.453,70.291 95.872,71.299 94.626 C 71.907 93.874,72.168 93.828,76.438 93.725 C 82.114 93.588,82.740 93.835,83.522 96.525 C 84.048 98.337,84.074 98.364,84.780 97.845 C 91.691 92.754,98.396 91.183,105.481 92.995 M234.396 92.992 C 237.119 93.833,239.503 95.415,240.781 97.229 L 241.787 98.656 242.810 97.972 C 256.770 88.644,272.414 91.059,274.955 102.933 C 275.631 106.089,275.474 143.626,274.782 144.390 C 273.984 145.272,262.017 145.324,261.291 144.449 C 260.920 144.003,260.802 140.449,260.667 125.699 C 260.482 105.508,260.571 106.281,258.223 104.535 C 256.152 102.994,246.208 104.173,244.180 106.201 C 243.730 106.651,243.667 109.008,243.667 125.333 C 243.667 141.815,243.607 144.013,243.143 144.476 C 242.408 145.211,230.810 145.256,229.814 144.527 C 229.190 144.071,229.161 143.380,229.000 125.551 C 228.815 104.966,228.975 106.340,226.540 104.522 C 224.573 103.053,218.284 103.588,213.583 105.624 L 212.000 106.310 212.000 125.131 C 212.000 141.797,211.940 144.012,211.476 144.476 C 210.698 145.254,198.969 145.255,198.191 144.477 C 197.318 143.604,197.309 143.285,197.406 118.720 L 197.500 94.941 198.287 94.304 C 198.973 93.748,199.634 93.667,203.454 93.672 C 208.845 93.678,209.272 93.853,210.160 96.423 C 210.891 98.540,211.008 98.610,212.290 97.698 C 218.546 93.243,228.410 91.143,234.396 92.992 M317.797 93.459 C 331.504 98.155,333.570 115.602,321.124 121.564 C 316.468 123.794,306.490 124.748,299.642 123.617 C 296.817 123.150,296.928 123.042,297.489 125.724 C 299.356 134.649,307.803 137.547,322.034 134.144 C 326.989 132.959,327.000 132.968,327.000 138.327 C 327.000 142.989,326.818 143.266,322.953 144.493 C 304.470 150.362,288.475 144.208,284.850 129.833 C 280.915 114.224,286.520 99.199,298.070 94.396 C 303.713 92.049,312.468 91.634,317.797 93.459 M162.853 93.806 C 163.449 94.243,163.500 94.721,163.500 99.922 C 163.500 107.103,163.833 106.667,158.354 106.667 C 153.805 106.667,151.549 106.964,147.750 108.064 L 145.333 108.764 145.333 126.141 C 145.333 141.329,145.268 143.612,144.814 144.259 C 144.113 145.261,132.355 145.425,131.276 144.448 C 130.447 143.698,130.315 95.610,131.139 94.480 C 131.562 93.901,132.115 93.822,136.398 93.727 C 142.483 93.591,142.593 93.656,143.665 97.994 C 144.551 101.580,144.196 101.505,147.165 98.733 C 151.927 94.285,160.029 91.741,162.853 93.806 M184.380 94.304 L 185.167 94.941 185.167 119.419 C 185.167 139.677,185.088 143.993,184.709 144.449 C 184.039 145.256,171.993 145.278,171.188 144.474 C 170.717 144.003,170.671 141.373,170.748 119.234 L 170.833 94.520 171.667 94.098 C 173.155 93.345,183.401 93.511,184.380 94.304 M304.295 103.127 C 300.802 104.375,298.200 108.050,297.499 112.724 L 297.269 114.255 300.176 114.668 C 310.482 116.131,315.967 113.825,315.607 108.180 C 315.315 103.589,309.842 101.144,304.295 103.127 M90.833 103.950 C 89.550 104.285,87.787 104.914,86.917 105.346 L 85.333 106.133 85.333 119.227 L 85.333 132.322 86.994 133.164 C 96.228 137.843,104.125 134.358,105.655 124.929 C 108.134 109.653,102.035 101.020,90.833 103.950 M144.043 170.132 C 152.115 173.535,149.832 185.288,140.975 185.924 C 135.098 186.346,131.333 183.160,131.333 177.766 C 131.333 171.359,137.775 167.489,144.043 170.132 M209.527 170.814 C 210.424 172.041,210.212 246.307,209.309 247.455 L 208.618 248.333 203.217 248.333 C 196.875 248.333,196.613 248.233,195.814 245.482 L 195.285 243.662 193.892 244.800 C 187.726 249.842,177.784 250.898,170.395 247.296 C 153.300 238.964,153.448 203.493,170.613 194.906 C 177.049 191.686,184.777 191.915,191.621 195.528 C 193.154 196.338,194.467 197.000,194.538 197.000 C 194.609 197.000,194.667 191.225,194.667 184.167 C 194.667 171.655,194.684 171.316,195.353 170.647 C 196.370 169.630,208.769 169.776,209.527 170.814 M310.333 193.513 C 322.445 196.687,328.781 206.229,328.806 221.333 C 328.838 240.585,317.127 251.726,298.943 249.740 C 283.763 248.083,276.149 238.520,276.193 221.167 C 276.233 204.949,283.211 195.426,296.833 192.999 C 299.435 192.536,307.822 192.855,310.333 193.513 M254.592 194.024 C 269.310 197.788,272.616 217.245,259.574 223.347 C 254.619 225.666,241.462 226.838,236.083 225.439 C 234.375 224.995,234.314 225.242,235.277 228.715 C 236.463 232.993,238.512 235.363,242.244 236.773 C 245.129 237.863,254.423 237.814,259.000 236.685 C 265.410 235.103,265.333 235.054,265.333 240.706 C 265.333 246.033,264.297 246.884,255.830 248.514 C 233.071 252.897,219.402 241.045,221.041 218.353 C 222.369 199.984,236.847 189.485,254.592 194.024 M86.177 195.091 C 87.125 195.907,86.713 194.593,94.204 220.667 C 96.126 227.358,97.783 233.058,97.885 233.333 C 98.143 234.028,98.345 233.492,100.140 227.333 C 100.968 224.492,102.485 219.317,103.509 215.833 C 104.534 212.350,106.116 206.950,107.026 203.833 C 109.157 196.534,109.572 195.438,110.435 194.833 C 111.369 194.179,123.957 194.090,124.600 194.733 C 125.407 195.540,124.866 197.215,117.834 215.681 C 113.893 226.032,109.656 237.166,108.418 240.425 C 107.180 243.684,105.844 246.759,105.449 247.259 L 104.731 248.167 98.393 248.270 L 92.055 248.373 91.022 247.437 C 90.166 246.661,89.184 244.382,85.302 234.167 C 69.277 191.997,70.603 195.778,71.524 194.857 C 72.484 193.897,85.022 194.097,86.177 195.091 M147.057 194.885 C 148.054 195.787,147.999 246.667,147.000 247.667 C 145.933 248.733,134.250 248.685,133.105 247.609 L 132.333 246.884 132.333 221.275 C 132.333 196.111,132.345 195.655,133.000 195.000 C 133.932 194.068,146.044 193.969,147.057 194.885 M243.348 204.011 C 239.131 204.894,235.714 209.184,235.100 214.369 C 234.882 216.213,234.792 216.181,241.167 216.535 C 249.769 217.013,253.315 215.313,253.589 210.580 C 253.882 205.513,249.525 202.719,243.348 204.011 M181.317 204.787 C 175.954 206.234,173.333 211.658,173.333 221.314 C 173.333 235.328,180.964 241.173,192.417 235.931 L 194.667 234.901 194.667 220.932 L 194.667 206.963 192.753 206.117 C 189.145 204.521,184.364 203.965,181.317 204.787 M299.331 204.978 C 289.318 208.024,288.459 233.132,298.228 237.214 C 306.990 240.875,313.129 234.409,313.149 221.500 C 313.169 208.715,307.871 202.380,299.331 204.978 M316.500 270.011 C 328.532 271.369,330.075 274.242,326.966 289.500 C 324.019 303.965,312.668 322.987,308.360 320.681 C 307.178 320.048,307.315 319.194,309.660 312.589 C 316.508 293.302,317.710 284.729,313.895 282.372 C 310.414 280.220,299.847 280.035,285.450 281.875 C 274.638 283.256,280.506 276.275,293.697 272.064 C 300.177 269.995,309.180 269.185,316.500 270.011 M79.481 275.453 C 146.181 315.110,226.143 320.527,296.356 290.144 C 302.172 287.628,302.641 287.496,304.100 287.978 C 306.774 288.860,307.773 291.988,306.072 294.150 C 302.675 298.469,284.625 309.358,271.477 315.020 C 205.825 343.291,131.022 330.451,77.529 281.728 C 71.542 276.275,70.949 275.336,72.358 273.545 C 73.440 272.168,74.380 272.420,79.481 275.453 " stroke="none" fill="#fbfbfb" fill-rule="evenodd"></path><path id="path2" d="M137.268 169.781 C 129.263 172.033,129.237 183.611,137.231 185.644 C 144.296 187.442,150.056 182.524,148.675 175.873 C 147.686 171.110,142.461 168.319,137.268 169.781 M196.000 170.231 C 194.702 170.695,194.667 171.069,194.667 184.230 C 194.667 197.151,194.550 198.365,193.473 196.623 C 192.353 194.811,185.248 192.826,180.000 192.860 C 163.317 192.968,153.288 212.172,159.220 232.650 C 163.817 248.521,181.052 254.633,193.743 244.892 L 195.319 243.682 195.849 245.505 C 196.644 248.239,196.889 248.333,203.217 248.333 L 208.618 248.333 209.309 247.455 C 209.999 246.578,210.000 246.510,209.995 209.372 C 209.991 169.687,210.029 170.939,208.789 170.374 C 207.960 169.996,197.001 169.874,196.000 170.231 M297.180 193.037 C 283.802 194.986,276.000 205.385,276.000 221.266 C 276.000 238.022,284.174 248.144,298.956 249.691 C 315.769 251.452,326.994 242.206,328.695 225.194 C 330.849 203.655,317.537 190.072,297.180 193.037 M240.500 193.827 C 231.220 195.874,224.591 202.421,221.933 212.167 C 220.736 216.552,220.843 228.010,222.118 232.154 C 226.488 246.348,240.363 252.445,258.104 247.966 C 265.079 246.205,265.333 245.946,265.333 240.616 C 265.333 235.393,265.136 235.181,261.221 236.196 C 250.217 239.047,240.920 237.961,237.456 233.420 C 235.557 230.930,233.745 224.575,235.081 225.088 C 240.123 227.023,254.109 225.988,259.667 223.270 C 271.622 217.421,269.711 199.455,256.628 194.706 C 252.682 193.273,244.927 192.851,240.500 193.827 M71.524 194.857 C 70.743 195.638,70.741 195.631,74.322 205.073 C 76.150 209.891,80.429 221.183,83.832 230.167 C 88.909 243.568,90.198 246.665,91.015 247.417 L 92.011 248.333 97.855 248.333 C 106.172 248.333,104.911 249.670,110.443 235.000 C 113.118 227.908,117.721 215.818,122.563 203.167 C 125.113 196.507,125.362 195.422,124.488 194.783 C 123.563 194.107,111.426 194.139,110.453 194.820 C 109.440 195.530,109.614 194.978,99.315 230.269 C 98.685 232.425,98.114 233.852,97.980 233.603 C 97.852 233.363,96.759 229.717,95.552 225.500 C 86.799 194.919,87.017 195.617,85.947 194.867 C 84.824 194.081,72.309 194.072,71.524 194.857 M133.147 194.806 C 132.518 195.267,132.498 195.978,132.411 220.982 L 132.321 246.685 133.145 247.509 C 134.314 248.677,145.858 248.809,147.000 247.667 C 147.999 246.667,148.054 195.787,147.057 194.885 C 146.216 194.124,134.174 194.056,133.147 194.806 M248.993 204.027 C 254.611 205.322,255.586 213.020,250.452 215.542 C 248.516 216.492,248.453 216.500,242.667 216.461 C 234.318 216.405,234.239 216.357,235.564 212.167 C 237.679 205.481,242.533 202.539,248.993 204.027 M188.778 204.828 C 190.031 205.093,191.869 205.682,192.862 206.137 L 194.667 206.963 194.667 220.936 L 194.667 234.908 192.583 235.934 C 181.250 241.512,173.385 235.474,173.347 221.167 C 173.312 207.914,178.320 202.612,188.778 204.828 M306.068 205.185 C 315.367 208.353,316.235 232.193,307.220 236.807 C 299.311 240.854,292.687 235.728,291.645 224.753 C 290.279 210.373,296.505 201.926,306.068 205.185 " stroke="none" fill="#242c3c" fill-rule="evenodd"></path></g></svg>