<svg xmlns="http://www.w3.org/2000/svg" width="106.823" height="88.457" viewBox="0 0 28.263584 23.404249">
  <defs>
    <radialGradient id="iq0uj45s6c" cx="12.535602" cy="0" r="61.186199" fx="12.535602" fy="0" gradientTransform="matrix(0.55487591,0,0,0.6094685,-9.5266185e-5,0)" gradientUnits="userSpaceOnUse">
      <stop offset="0%" stop-color="#00C0FF"></stop>
      <stop offset="54.318%" stop-color="#00BDFF"></stop>
      <stop offset="100%" stop-color="#008CFF"></stop>
    </radialGradient>
    <linearGradient id="p03x1rv66a" x1="4.2352681" x2="7.2833438" y1="46.419338" y2="47.509998" gradientTransform="matrix(0.91350346,0,0,0.37020045,-9.5266185e-5,0)" gradientUnits="userSpaceOnUse">
      <stop offset="0%" stop-color="#00C0FF"></stop>
      <stop offset="99.951%" stop-color="#008CFF"></stop>
    </linearGradient>
    <linearGradient id="98g8xpgnob" x1="45.634933" x2="46.691784" y1="8.175293" y2="13.233778" gradientTransform="matrix(0.50730153,0,0,0.66662402,-9.5266185e-5,0)" gradientUnits="userSpaceOnUse">
      <stop offset="0%" stop-color="#00C0FF"></stop>
      <stop offset="100%" stop-color="#008CFF"></stop>
    </linearGradient>
  </defs>
  <g>
    <path fill="#00C0FF" d="M 23.754322,9.234727 C 26.29329,6.845212 27.50404,4.63888 26.80562,3.135039 25.833298,1.041524 20.575087,1.730058 14.733017,4.276004 c -3.128642,1.440455 -4.515596,2.11445 -7.5581713,4.18703 -5.133764,3.645624 -8.191459,7.60353 -6.86556597,9.484205 0.89672197,1.273555 3.68109697,1.266576 7.11911397,0.324495 l -0.03722,-1.435221 c -1.815543,0.250058 -3.255416,0.03722 -3.728783,-0.776345 C 2.9232637,14.78952 4.3939577,12.477931 7.2184587,10.14308 10.013883,7.969314 13.051224,6.330557 16.28745,5.130275 19.788853,3.899753 22.709888,3.746229 23.452505,5.022691 23.924709,5.83451 23.477515,7.07201 22.358643,8.468268 L 23.75432,9.23589 Z"></path>
    <path fill="url(#p03x1rv66a)" d="m 3.6623927,16.059005 -3.35311297,1.887652 c 0.89672197,1.273555 3.68109697,1.266577 7.11911397,0.324495 l -0.03722,-1.435221 c -1.815543,0.250059 -3.255416,0.0378 -3.728783,-0.776926"></path>
    <path fill="url(#98g8xpgnob)" d="M 26.80562,3.135039 23.452507,5.02211 c 0.472204,0.811818 0.02501,2.049318 -1.093862,3.445577 l 1.395677,0.767622 C 26.29329,6.845212 27.50404,4.63888 26.80562,3.135039"></path>
    <path fill="url(#iq0uj45s6c)" d="m 6.9556087,0 0.165155,6.389291 C 8.7432377,5.860097 10.963527,5.47396 12.362111,5.389056 10.658222,6.209598 8.9270017,7.252866 7.1748457,8.463616 L 7.5615647,23.404334 28.26352,11.713798 6.9561897,0 Z"></path>
  </g>
</svg>