<svg id="svg" version="1.1" xmlns="http://www.w3.org/2000/svg" xmlns:xlink="http://www.w3.org/1999/xlink" width="400" height="400" viewBox="0, 0, 400,400"><g id="svgg"><path id="path0" d="M70.528 50.622 C 69.829 50.929,68.794 51.786,68.228 52.527 L 67.200 53.876 67.200 77.843 C 67.200 106.141,67.164 105.926,72.819 111.581 C 77.530 116.292,80.464 117.200,90.962 117.199 C 101.391 117.197,103.200 116.170,103.200 110.254 C 103.200 104.683,100.907 103.200,92.294 103.200 C 85.203 103.200,83.895 102.857,82.124 100.536 L 81.000 99.063 80.800 76.600 L 80.600 54.137 79.476 52.664 C 77.574 50.171,73.619 49.269,70.528 50.622 M126.707 50.617 C 119.696 52.534,114.024 58.332,112.161 65.486 C 111.303 68.780,111.337 112.332,112.200 113.999 C 113.391 116.304,115.139 117.200,118.438 117.199 C 124.374 117.196,125.578 115.327,125.591 106.100 L 125.600 100.000 131.600 100.000 L 137.600 100.000 137.601 106.500 C 137.604 115.441,138.738 117.195,144.520 117.199 C 147.885 117.200,149.250 116.540,150.584 114.263 L 151.600 112.530 151.600 89.931 C 151.600 68.120,151.571 67.244,150.768 64.797 C 147.205 53.943,136.853 47.843,126.707 50.617 M177.000 50.552 C 169.626 52.616,164.122 58.181,162.229 65.490 C 161.108 69.814,161.303 111.534,162.455 113.913 C 164.534 118.208,172.019 118.591,174.678 114.538 C 175.311 113.573,175.425 112.182,175.600 103.219 L 175.800 93.000 184.872 92.800 C 196.569 92.542,197.800 91.857,197.800 85.600 C 197.800 79.343,196.569 78.658,184.872 78.400 L 175.800 78.200 175.676 74.400 C 175.500 69.053,176.385 66.568,179.000 65.067 C 179.476 64.794,182.652 64.525,186.832 64.404 C 193.826 64.201,193.871 64.194,195.374 63.047 C 199.465 59.926,198.834 52.872,194.259 50.590 C 192.812 49.868,179.549 49.839,177.000 50.552 M208.000 50.831 C 203.249 53.587,203.662 61.763,208.657 63.850 C 209.459 64.185,211.449 64.400,213.744 64.400 C 216.813 64.400,217.560 64.518,217.757 65.033 C 217.891 65.381,218.000 76.280,218.000 89.253 C 218.000 115.265,217.896 114.165,220.537 116.179 C 222.915 117.993,228.254 117.580,230.135 115.437 C 231.999 113.316,232.000 113.296,232.000 88.194 L 232.000 64.486 236.500 64.343 C 241.723 64.176,242.945 63.605,244.366 60.671 C 246.084 57.121,244.958 52.829,241.826 50.994 L 240.130 50.000 224.765 50.009 C 210.058 50.018,209.340 50.053,208.000 50.831 M255.536 50.538 C 251.448 52.355,251.600 51.064,251.600 83.914 L 251.600 112.530 252.616 114.263 C 254.366 117.250,254.054 117.200,271.080 117.199 C 285.552 117.197,286.257 117.162,287.527 116.388 C 290.522 114.562,291.353 108.850,289.061 105.844 C 287.228 103.441,287.115 103.418,276.000 103.200 L 265.800 103.000 265.800 97.200 L 265.800 91.400 273.600 91.182 C 284.265 90.883,286.217 89.735,286.184 83.779 C 286.151 77.847,284.347 76.802,274.120 76.794 C 264.754 76.786,265.553 77.395,265.689 70.369 L 265.800 64.600 276.000 64.400 C 285.972 64.204,286.230 64.179,287.547 63.240 C 291.784 60.217,291.123 52.516,286.459 50.567 C 284.664 49.817,257.217 49.791,255.536 50.538 M302.200 50.748 C 300.394 51.870,299.325 53.223,298.841 55.000 C 298.252 57.160,298.238 96.550,298.825 99.827 C 300.258 107.826,304.974 113.685,312.115 116.340 C 314.825 117.347,329.995 117.654,331.726 116.737 C 334.685 115.170,336.024 110.748,334.585 107.302 C 333.067 103.669,331.845 103.200,323.893 103.200 C 318.175 103.200,317.357 103.114,316.054 102.373 C 312.817 100.532,313.025 102.152,312.800 77.000 C 312.606 55.307,312.574 54.556,311.778 53.200 C 310.056 50.269,305.039 48.985,302.200 50.748 M135.315 65.904 C 137.382 67.873,137.600 68.976,137.600 77.449 L 137.600 85.200 131.600 85.200 L 125.600 85.200 125.600 77.326 C 125.600 68.775,126.007 66.874,128.136 65.479 C 130.309 64.055,133.577 64.249,135.315 65.904 M195.500 137.499 C 198.415 137.567,203.185 137.567,206.100 137.499 C 209.015 137.431,206.630 137.375,200.800 137.375 C 194.970 137.375,192.585 137.431,195.500 137.499 M183.305 137.887 C 183.914 137.979,184.814 137.977,185.305 137.882 C 185.797 137.787,185.300 137.711,184.200 137.714 C 183.100 137.717,182.697 137.795,183.305 137.887 M216.300 137.882 C 216.795 137.978,217.605 137.978,218.100 137.882 C 218.595 137.787,218.190 137.709,217.200 137.709 C 216.210 137.709,215.805 137.787,216.300 137.882 M178.300 138.289 C 179.015 138.378,180.185 138.378,180.900 138.289 C 181.615 138.201,181.030 138.128,179.600 138.128 C 178.170 138.128,177.585 138.201,178.300 138.289 M220.291 138.289 C 221.001 138.377,222.261 138.379,223.091 138.292 C 223.921 138.205,223.340 138.133,221.800 138.131 C 220.260 138.129,219.581 138.200,220.291 138.289 M170.905 139.087 C 171.514 139.179,172.414 139.177,172.905 139.082 C 173.397 138.987,172.900 138.911,171.800 138.914 C 170.700 138.917,170.297 138.995,170.905 139.087 M228.505 139.087 C 229.114 139.179,230.014 139.177,230.505 139.082 C 230.997 138.987,230.500 138.911,229.400 138.914 C 228.300 138.917,227.897 138.995,228.505 139.087 M163.200 140.007 C 162.579 140.211,163.109 140.251,164.600 140.112 C 165.920 139.989,167.075 139.824,167.167 139.744 C 167.489 139.465,164.188 139.684,163.200 140.007 M235.105 139.883 C 235.602 139.979,236.322 139.975,236.705 139.875 C 237.087 139.775,236.680 139.696,235.800 139.701 C 234.920 139.705,234.607 139.787,235.105 139.883 M160.100 140.676 C 160.485 140.776,161.115 140.776,161.500 140.676 C 161.885 140.575,161.570 140.493,160.800 140.493 C 160.030 140.493,159.715 140.575,160.100 140.676 M239.633 140.544 C 239.725 140.624,240.610 140.796,241.600 140.927 C 242.802 141.086,243.134 141.047,242.600 140.810 C 241.836 140.472,239.286 140.243,239.633 140.544 M155.700 141.476 C 156.085 141.576,156.715 141.576,157.100 141.476 C 157.485 141.375,157.170 141.293,156.400 141.293 C 155.630 141.293,155.315 141.375,155.700 141.476 M244.100 141.476 C 244.485 141.576,245.115 141.576,245.500 141.476 C 245.885 141.375,245.570 141.293,244.800 141.293 C 244.030 141.293,243.715 141.375,244.100 141.476 M150.600 142.419 C 150.042 142.671,150.285 142.707,151.400 142.538 C 152.280 142.404,153.075 142.228,153.167 142.147 C 153.510 141.844,151.368 142.071,150.600 142.419 M248.033 142.147 C 248.125 142.228,248.920 142.404,249.800 142.538 C 250.915 142.707,251.158 142.671,250.600 142.419 C 249.832 142.071,247.690 141.844,248.033 142.147 M147.200 143.206 C 146.778 143.482,147.015 143.523,148.000 143.342 C 149.725 143.025,150.051 142.798,148.767 142.806 C 148.235 142.809,147.530 142.989,147.200 143.206 M252.033 142.944 C 252.125 143.023,252.740 143.208,253.400 143.356 C 254.276 143.552,254.438 143.515,254.000 143.218 C 253.460 142.853,251.632 142.598,252.033 142.944 M144.000 144.018 C 143.562 144.315,143.724 144.352,144.600 144.156 C 146.071 143.827,146.390 143.598,145.367 143.606 C 144.945 143.609,144.330 143.795,144.000 144.018 M256.200 144.000 C 256.640 144.189,257.270 144.344,257.600 144.344 C 257.978 144.344,257.904 144.217,257.400 144.000 C 256.960 143.811,256.330 143.656,256.000 143.656 C 255.622 143.656,255.696 143.783,256.200 144.000 M140.800 144.818 C 140.362 145.115,140.524 145.152,141.400 144.956 C 142.871 144.627,143.190 144.398,142.167 144.406 C 141.745 144.409,141.130 144.595,140.800 144.818 M258.433 144.544 C 258.525 144.623,259.140 144.808,259.800 144.956 C 260.676 145.152,260.838 145.115,260.400 144.818 C 259.860 144.453,258.032 144.198,258.433 144.544 M189.600 148.219 C 189.270 148.310,186.390 148.578,183.200 148.812 C 174.296 149.467,169.022 150.089,163.000 151.193 C 161.680 151.436,159.589 151.806,158.353 152.017 C 156.070 152.407,148.153 154.180,145.600 154.873 C 144.830 155.082,143.570 155.407,142.800 155.596 C 140.359 156.192,139.422 156.458,138.600 156.786 C 138.160 156.961,136.450 157.508,134.800 158.000 C 131.750 158.910,130.351 159.413,129.105 160.047 C 128.723 160.241,128.136 160.400,127.800 160.400 C 127.464 160.400,126.877 160.559,126.495 160.753 C 126.113 160.948,125.305 161.308,124.700 161.553 C 124.095 161.799,123.105 162.204,122.500 162.454 C 121.895 162.703,120.995 163.063,120.500 163.254 C 116.779 164.686,113.054 166.393,105.417 170.164 C 101.448 172.124,98.110 173.834,98.000 173.964 C 97.810 174.188,95.238 175.609,93.303 176.560 C 92.810 176.802,92.405 177.135,92.403 177.300 C 92.401 177.465,92.204 177.600,91.965 177.600 C 91.545 177.600,75.605 188.218,75.200 188.767 C 75.090 188.916,74.370 189.474,73.600 190.006 C 72.830 190.538,72.004 191.160,71.763 191.387 C 71.523 191.614,70.730 192.250,70.000 192.800 C 69.270 193.350,68.477 193.980,68.237 194.200 C 67.996 194.420,66.188 195.950,64.217 197.600 C 54.202 205.986,42.335 218.172,34.029 228.600 C 30.185 233.426,30.437 233.103,28.400 235.809 C 27.410 237.124,26.381 238.432,26.114 238.715 C 25.847 238.998,25.313 239.763,24.928 240.415 C 24.543 241.067,24.086 241.600,23.914 241.600 C 23.741 241.600,23.600 241.836,23.600 242.125 C 23.600 242.413,23.285 242.999,22.900 243.427 C 22.150 244.259,16.800 252.277,16.800 252.567 C 16.800 252.663,15.900 254.100,14.800 255.761 C 13.700 257.422,12.800 258.966,12.800 259.191 C 12.800 259.416,12.641 259.600,12.447 259.600 C 12.252 259.600,11.990 259.915,11.864 260.300 C 11.738 260.685,11.149 261.810,10.555 262.800 C 8.831 265.674,7.275 268.576,3.904 275.200 C 2.169 278.610,0.580 281.571,0.374 281.780 C 0.145 282.013,0.000 305.016,0.000 341.080 L 0.000 400.000 16.900 400.000 L 33.800 400.000 33.661 398.001 C 33.412 394.400,36.117 391.187,42.316 387.720 C 45.140 386.141,52.946 382.800,53.811 382.800 C 54.559 382.800,54.722 382.009,54.308 380.400 C 52.577 373.670,52.569 369.763,54.277 364.400 C 55.003 362.120,56.867 358.400,57.284 358.400 C 57.458 358.400,57.600 358.152,57.600 357.849 C 57.600 357.545,58.944 355.880,60.586 354.149 C 64.132 350.410,64.024 350.996,61.800 347.558 C 60.810 346.027,60.000 344.601,60.000 344.388 C 60.000 344.174,59.865 343.999,59.700 343.997 C 59.535 343.995,59.201 343.590,58.959 343.097 C 58.716 342.604,57.924 341.120,57.200 339.800 C 53.358 332.802,50.388 326.501,47.111 318.400 C 46.889 317.850,46.548 317.087,46.353 316.705 C 46.159 316.323,46.000 315.736,46.000 315.400 C 46.000 315.064,45.841 314.477,45.647 314.095 C 45.014 312.851,44.462 311.431,43.977 309.800 C 43.716 308.920,43.344 307.887,43.151 307.505 C 42.958 307.123,42.800 306.459,42.800 306.029 C 42.800 305.599,42.620 305.136,42.400 305.000 C 42.180 304.864,42.000 304.234,42.000 303.600 C 42.000 302.966,41.820 302.336,41.600 302.200 C 41.035 301.851,41.103 298.959,41.700 297.917 C 42.398 296.699,43.881 295.200,44.387 295.200 C 44.620 295.200,45.153 294.986,45.572 294.725 C 47.808 293.328,51.445 296.194,52.567 300.238 C 53.564 303.834,54.734 307.568,55.216 308.700 C 55.860 310.211,56.297 311.336,56.807 312.800 C 57.075 313.570,57.633 314.963,58.047 315.896 C 58.461 316.828,58.800 317.863,58.800 318.196 C 58.800 318.528,58.980 318.800,59.200 318.800 C 59.420 318.800,59.600 319.053,59.600 319.362 C 59.600 319.941,59.728 320.221,63.095 327.000 C 66.350 333.555,71.595 342.887,72.426 343.600 C 72.554 343.710,72.775 344.115,72.917 344.500 C 73.195 345.254,74.595 345.455,75.000 344.800 C 75.136 344.580,75.676 344.400,76.200 344.400 C 76.724 344.400,77.264 344.220,77.400 344.000 C 77.536 343.780,78.411 343.600,79.344 343.600 C 80.277 343.600,81.232 343.408,81.468 343.172 C 82.254 342.386,91.226 343.100,94.200 344.184 C 98.285 345.675,104.330 349.873,105.889 352.303 C 106.277 352.906,106.886 353.723,107.243 354.118 C 107.600 354.512,108.299 355.682,108.797 356.718 C 111.186 361.690,111.558 364.300,110.568 369.160 L 110.291 370.521 112.646 370.277 C 113.941 370.143,116.620 369.838,118.600 369.601 C 143.417 366.621,169.148 365.245,200.000 365.247 C 231.468 365.249,258.326 366.675,282.200 369.611 C 290.712 370.658,291.246 370.683,290.922 370.016 C 290.423 368.986,290.298 361.542,290.772 361.068 C 291.008 360.832,291.200 360.237,291.200 359.744 C 291.200 359.251,291.380 358.736,291.600 358.600 C 291.820 358.464,292.000 358.003,292.000 357.576 C 292.000 357.149,292.180 356.800,292.400 356.800 C 292.620 356.800,292.800 356.607,292.800 356.372 C 292.800 353.569,303.536 344.400,306.817 344.400 C 307.222 344.400,307.652 344.239,307.774 344.042 C 308.746 342.469,320.794 342.818,325.709 344.561 C 327.273 345.116,327.711 345.144,328.127 344.719 C 329.246 343.576,334.997 333.418,338.045 327.200 C 339.825 323.570,341.443 320.287,341.640 319.905 C 341.838 319.523,342.000 318.938,342.000 318.605 C 342.000 318.272,342.180 318.000,342.400 318.000 C 342.620 318.000,342.800 317.728,342.800 317.395 C 342.800 317.062,342.959 316.477,343.153 316.095 C 343.348 315.713,343.684 314.950,343.900 314.400 C 344.116 313.850,344.521 312.860,344.800 312.200 C 345.483 310.584,345.801 309.694,346.371 307.800 C 346.636 306.920,347.002 305.840,347.185 305.400 C 347.368 304.960,347.941 303.106,348.459 301.279 C 350.375 294.518,354.652 292.510,358.583 296.525 C 359.861 297.832,360.314 302.646,359.257 303.703 C 359.006 303.954,358.800 304.653,358.800 305.256 C 358.800 305.859,358.620 306.464,358.400 306.600 C 358.180 306.736,358.000 307.276,358.000 307.800 C 358.000 308.324,357.820 308.864,357.600 309.000 C 357.380 309.136,357.200 309.651,357.200 310.144 C 357.200 310.637,357.057 311.211,356.882 311.420 C 356.707 311.629,356.335 312.520,356.055 313.400 C 355.776 314.280,355.397 315.360,355.214 315.800 C 355.032 316.240,354.125 318.490,353.200 320.800 C 350.270 328.118,346.498 335.844,343.045 341.600 C 342.451 342.590,341.862 343.715,341.736 344.100 C 341.610 344.485,341.348 344.800,341.153 344.800 C 340.959 344.800,340.800 345.003,340.800 345.251 C 340.800 345.500,340.080 346.758,339.200 348.047 C 337.235 350.926,337.213 350.592,339.517 352.780 C 340.571 353.781,341.870 355.230,342.404 356.000 C 342.937 356.770,343.591 357.624,343.857 357.898 C 344.664 358.732,346.744 363.368,347.582 366.200 C 348.369 368.862,347.725 380.428,346.756 381.027 C 345.855 381.584,346.474 382.628,347.982 383.099 C 359.241 386.613,367.657 393.266,367.100 398.211 L 366.898 400.000 383.449 400.000 L 400.000 400.000 400.000 340.280 C 400.000 306.811,399.846 280.393,399.651 280.180 C 399.459 279.971,397.977 277.190,396.358 274.000 C 394.738 270.810,393.320 268.110,393.207 268.000 C 393.093 267.890,392.626 267.080,392.170 266.200 C 391.094 264.127,390.251 262.651,389.999 262.400 C 389.889 262.290,389.529 261.660,389.200 261.000 C 388.871 260.340,388.511 259.710,388.401 259.600 C 388.290 259.490,387.942 258.950,387.627 258.400 C 385.644 254.936,377.341 242.054,376.800 241.600 C 376.669 241.490,376.129 240.770,375.600 240.000 C 375.071 239.230,374.531 238.510,374.400 238.400 C 374.269 238.290,373.729 237.570,373.200 236.800 C 372.671 236.030,372.139 235.310,372.018 235.200 C 371.897 235.090,370.991 233.920,370.005 232.600 C 360.822 220.309,345.088 204.036,333.455 194.800 C 333.040 194.470,332.317 193.836,331.850 193.391 C 331.382 192.947,330.370 192.145,329.600 191.611 C 328.830 191.076,328.110 190.531,328.000 190.400 C 327.890 190.269,327.170 189.725,326.400 189.192 C 325.630 188.658,324.820 188.079,324.600 187.905 C 321.486 185.439,310.979 178.400,310.412 178.400 C 310.185 178.400,310.000 178.241,310.000 178.047 C 310.000 177.852,309.685 177.593,309.300 177.471 C 308.615 177.254,306.396 175.996,306.000 175.600 C 305.178 174.778,286.386 165.454,282.600 163.989 C 282.160 163.819,280.947 163.302,279.904 162.840 C 278.862 162.378,277.824 162.000,277.599 162.000 C 277.374 162.000,276.877 161.841,276.495 161.647 C 276.113 161.452,275.260 161.071,274.600 160.800 C 273.940 160.529,273.087 160.148,272.705 159.953 C 272.323 159.759,271.659 159.600,271.229 159.600 C 270.799 159.600,270.336 159.420,270.200 159.200 C 270.064 158.980,269.524 158.800,269.000 158.800 C 268.476 158.800,267.936 158.620,267.800 158.400 C 267.664 158.180,267.124 158.000,266.600 158.000 C 266.076 158.000,265.549 157.841,265.429 157.646 C 265.308 157.451,264.713 157.196,264.105 157.079 C 263.497 156.962,262.370 156.681,261.600 156.455 C 259.172 155.744,257.048 155.158,255.600 154.803 C 243.094 151.727,231.703 149.837,219.200 148.762 C 214.742 148.379,190.615 147.936,189.600 148.219 M125.200 149.600 C 124.667 149.945,124.667 149.988,125.200 149.988 C 125.530 149.988,126.070 149.813,126.400 149.600 C 126.933 149.255,126.933 149.212,126.400 149.212 C 126.070 149.212,125.530 149.387,125.200 149.600 M110.200 155.578 C 109.320 155.995,108.713 156.350,108.851 156.368 C 109.240 156.418,112.000 155.214,112.000 154.995 C 112.000 154.727,111.999 154.727,110.200 155.578 M289.200 154.989 C 289.200 155.306,292.100 156.433,292.328 156.205 C 292.441 156.092,292.435 156.000,292.316 156.000 C 292.196 156.000,291.446 155.728,290.649 155.395 C 289.852 155.062,289.200 154.879,289.200 154.989 M292.800 156.558 C 292.800 156.670,293.475 157.071,294.300 157.448 C 295.125 157.826,295.935 158.205,296.100 158.291 C 296.265 158.377,296.400 158.355,296.400 158.242 C 296.400 158.130,295.725 157.729,294.900 157.352 C 294.075 156.974,293.265 156.595,293.100 156.509 C 292.935 156.423,292.800 156.445,292.800 156.558 M102.908 158.888 C 101.538 159.582,100.480 160.213,100.558 160.291 C 100.635 160.369,101.937 159.801,103.449 159.030 C 104.962 158.258,106.020 157.627,105.800 157.627 C 105.580 157.626,104.279 158.194,102.908 158.888 M97.600 161.633 L 96.600 162.448 97.900 161.814 C 98.615 161.465,99.200 161.094,99.200 160.990 C 99.200 160.592,98.563 160.848,97.600 161.633 M309.200 164.979 C 309.200 165.089,309.740 165.459,310.400 165.800 C 311.060 166.141,311.600 166.331,311.600 166.221 C 311.600 166.111,311.060 165.741,310.400 165.400 C 309.740 165.059,309.200 164.869,309.200 164.979 M312.000 166.579 C 312.000 166.689,312.540 167.059,313.200 167.400 C 313.860 167.741,314.400 167.931,314.400 167.821 C 314.400 167.711,313.860 167.341,313.200 167.000 C 312.540 166.659,312.000 166.469,312.000 166.579 M85.896 168.150 C 83.975 169.331,83.438 169.889,85.000 169.081 C 86.254 168.433,87.945 167.226,87.600 167.225 C 87.490 167.225,86.723 167.641,85.896 168.150 M316.600 169.407 C 317.040 169.766,317.760 170.235,318.200 170.451 L 319.000 170.844 318.200 170.193 C 317.760 169.834,317.040 169.365,316.600 169.149 L 315.800 168.756 316.600 169.407 M79.396 172.252 C 76.560 174.131,74.801 175.564,77.000 174.205 C 80.647 171.950,82.804 170.400,82.296 170.400 C 82.238 170.400,80.933 171.233,79.396 172.252 M73.507 176.126 C 72.466 176.826,71.611 177.535,71.607 177.699 C 71.603 177.864,72.500 177.352,73.600 176.562 C 74.700 175.772,75.600 175.052,75.600 174.962 C 75.600 174.721,75.558 174.745,73.507 176.126 M328.800 177.325 C 328.800 177.424,329.461 178.009,330.268 178.625 C 331.076 179.241,331.611 179.541,331.456 179.291 C 331.140 178.779,328.800 177.047,328.800 177.325 M332.000 179.725 C 332.000 179.824,332.661 180.409,333.468 181.025 C 334.276 181.641,334.811 181.941,334.656 181.691 C 334.340 181.179,332.000 179.447,332.000 179.725 M65.185 182.432 L 63.800 183.663 65.088 182.813 C 66.230 182.059,67.093 181.200,66.708 181.200 C 66.632 181.200,65.947 181.754,65.185 182.432 M335.200 182.085 C 335.200 182.186,336.861 183.603,338.891 185.234 C 340.921 186.865,344.026 189.429,345.791 190.931 C 348.553 193.281,348.666 193.346,346.600 191.395 C 345.280 190.149,342.400 187.678,340.200 185.905 C 335.074 181.774,335.200 181.870,335.200 182.085 M57.200 188.857 L 55.000 190.889 57.099 189.208 C 58.939 187.734,59.913 186.773,59.524 186.813 C 59.456 186.820,58.410 187.740,57.200 188.857 M52.581 192.900 L 51.000 194.600 52.794 193.000 C 53.780 192.120,54.665 191.355,54.761 191.300 C 54.856 191.245,54.760 191.200,54.548 191.200 C 54.336 191.200,53.451 191.965,52.581 192.900 M352.179 196.690 C 353.927 198.497,355.431 199.902,355.521 199.812 C 355.690 199.644,355.387 199.337,351.366 195.602 C 349.731 194.083,349.982 194.419,352.179 196.690 M48.400 196.546 C 47.190 197.718,45.940 199.019,45.623 199.438 C 45.306 199.857,46.341 198.945,47.923 197.411 C 50.551 194.863,50.993 194.384,50.700 194.408 C 50.645 194.412,49.610 195.375,48.400 196.546 M36.182 208.900 C 33.154 212.095,31.033 214.598,33.376 212.212 C 36.774 208.750,38.574 206.800,38.370 206.800 C 38.261 206.800,37.277 207.745,36.182 208.900 M365.776 210.500 C 367.729 212.645,369.407 214.400,369.505 214.400 C 369.757 214.400,364.293 208.374,363.159 207.400 C 362.646 206.960,363.824 208.355,365.776 210.500 M169.174 213.855 C 171.944 214.409,173.606 217.521,172.879 220.795 C 172.547 222.292,169.265 225.194,167.900 225.198 C 167.515 225.199,167.200 225.380,167.200 225.600 C 167.200 225.820,166.928 226.000,166.595 226.000 C 166.262 226.000,165.677 226.159,165.295 226.353 C 164.913 226.548,164.060 226.929,163.400 227.200 C 162.740 227.471,161.887 227.852,161.505 228.047 C 161.123 228.241,160.369 228.400,159.829 228.400 C 159.289 228.400,158.748 228.561,158.626 228.758 C 158.505 228.955,157.729 229.215,156.903 229.337 C 156.076 229.459,154.410 229.768,153.200 230.022 C 151.990 230.277,149.290 230.567,147.200 230.666 L 143.400 230.846 141.900 229.469 C 141.075 228.712,140.400 227.812,140.400 227.470 C 140.400 227.127,140.220 226.736,140.000 226.600 C 139.780 226.464,139.600 225.924,139.600 225.400 C 139.600 224.876,139.780 224.336,140.000 224.200 C 140.220 224.064,140.400 223.661,140.400 223.305 C 140.400 222.326,143.147 220.000,144.304 220.000 C 145.382 220.000,149.235 219.419,152.800 218.719 C 155.887 218.113,160.471 216.581,162.923 215.336 C 166.199 213.672,167.143 213.449,169.174 213.855 M238.282 215.339 C 243.321 217.814,252.026 220.000,256.846 220.000 C 258.877 220.000,261.200 222.881,261.200 225.400 C 261.200 230.890,255.619 232.124,244.000 229.203 C 243.010 228.954,241.703 228.651,241.095 228.529 C 240.487 228.407,239.892 228.149,239.771 227.954 C 239.651 227.759,239.124 227.600,238.600 227.600 C 238.076 227.600,237.536 227.420,237.400 227.200 C 237.264 226.980,236.803 226.800,236.376 226.800 C 235.949 226.800,235.600 226.620,235.600 226.400 C 235.600 226.180,235.335 226.000,235.011 226.000 C 234.687 226.000,233.652 225.542,232.711 224.982 C 231.770 224.423,230.730 223.873,230.400 223.762 C 228.183 223.011,227.298 218.363,228.914 215.959 C 230.710 213.287,233.702 213.089,238.282 215.339 M29.626 216.122 L 28.651 217.400 29.926 216.225 C 31.251 215.003,31.403 214.785,30.900 214.822 C 30.735 214.834,30.162 215.419,29.626 216.122 M369.600 214.925 C 369.600 214.994,370.173 215.579,370.874 216.225 L 372.149 217.400 371.174 216.122 C 370.347 215.037,369.600 214.469,369.600 214.925 M27.568 218.700 C 25.209 221.343,24.674 222.000,24.882 222.000 C 25.003 222.000,25.949 221.010,26.982 219.800 C 28.896 217.560,29.355 216.698,27.568 218.700 M376.036 222.567 C 378.273 225.335,380.198 227.600,380.313 227.600 C 380.429 227.600,380.256 227.285,379.928 226.900 C 379.601 226.515,377.862 224.365,376.065 222.123 C 374.268 219.881,372.612 217.931,372.384 217.790 C 372.156 217.649,373.800 219.799,376.036 222.567 M23.932 223.100 C 22.116 225.249,20.257 227.721,20.621 227.502 C 21.102 227.214,24.940 222.400,24.689 222.400 C 24.598 222.400,24.258 222.715,23.932 223.100 M18.975 229.468 C 18.359 230.276,18.059 230.811,18.309 230.656 C 18.821 230.340,20.553 228.000,20.275 228.000 C 20.176 228.000,19.591 228.661,18.975 229.468 M381.191 229.188 C 381.657 229.841,382.242 230.502,382.491 230.656 C 382.741 230.811,382.441 230.276,381.825 229.468 C 380.488 227.715,379.984 227.492,381.191 229.188 M17.315 231.700 C 15.581 233.967,14.666 235.320,15.009 235.113 C 15.481 234.827,18.137 231.200,17.874 231.200 C 17.777 231.200,17.526 231.425,17.315 231.700 M385.008 234.358 C 385.815 235.481,386.557 236.400,386.657 236.400 C 386.932 236.400,384.452 232.880,383.966 232.579 C 383.732 232.435,384.201 233.235,385.008 234.358 M11.523 239.900 C 10.818 240.721,10.290 241.600,10.501 241.600 C 10.583 241.600,11.049 241.060,11.537 240.400 C 12.501 239.096,12.492 238.772,11.523 239.900 M187.923 242.749 C 195.911 250.515,206.627 251.765,217.975 246.256 C 220.210 245.171,222.164 244.894,222.600 245.600 C 222.736 245.820,223.115 246.000,223.442 246.000 C 224.212 246.000,226.000 247.788,226.000 248.558 C 226.000 248.885,226.180 249.264,226.400 249.400 C 226.620 249.536,226.800 250.166,226.800 250.800 C 226.800 251.434,226.620 252.064,226.400 252.200 C 226.180 252.336,226.000 252.714,226.000 253.041 C 226.000 254.386,224.068 255.706,219.200 257.687 C 218.650 257.910,217.887 258.252,217.505 258.447 C 217.123 258.641,216.459 258.800,216.029 258.800 C 215.599 258.800,215.136 258.980,215.000 259.200 C 214.864 259.420,214.169 259.600,213.456 259.600 C 212.743 259.600,211.947 259.813,211.686 260.074 C 211.357 260.403,209.069 260.547,204.200 260.547 C 199.331 260.547,197.043 260.403,196.714 260.074 C 196.453 259.813,195.747 259.600,195.144 259.600 C 194.541 259.600,193.936 259.420,193.800 259.200 C 193.664 258.980,193.276 258.800,192.937 258.800 C 190.324 258.800,181.865 253.030,178.807 249.161 C 175.349 244.787,177.211 239.607,182.242 239.602 L 184.684 239.600 187.923 242.749 M393.809 247.426 C 394.181 248.101,394.841 249.091,395.276 249.626 L 396.067 250.600 395.391 249.374 C 395.019 248.699,394.359 247.709,393.924 247.174 L 393.133 246.200 393.809 247.426 M5.846 248.600 C 5.491 249.150,4.909 250.095,4.553 250.700 L 3.905 251.800 4.710 250.826 C 5.660 249.676,6.921 247.600,6.669 247.600 C 6.571 247.600,6.201 248.050,5.846 248.600 M396.000 250.920 C 396.000 251.304,398.045 254.400,398.299 254.400 C 398.478 254.400,397.841 253.319,396.539 251.411 C 396.242 250.977,396.000 250.756,396.000 250.920 M2.704 253.682 C 0.316 257.810,0.252 258.528,2.622 254.592 C 3.387 253.321,3.942 252.209,3.855 252.122 C 3.768 252.035,3.250 252.737,2.704 253.682 M398.415 255.000 C 398.417 255.220,398.786 255.850,399.236 256.400 C 399.779 257.064,399.915 257.131,399.640 256.600 C 398.966 255.295,398.412 254.572,398.415 255.000 M83.400 353.570 C 82.655 353.742,83.566 353.850,85.800 353.856 C 88.592 353.864,89.041 353.796,87.800 353.556 C 85.922 353.192,85.033 353.195,83.400 353.570 M313.200 353.576 C 312.297 353.751,313.148 353.849,315.600 353.853 C 318.474 353.858,319.010 353.785,317.800 353.553 C 315.949 353.198,315.134 353.202,313.200 353.576 M304.581 358.100 L 303.000 359.800 304.700 358.219 C 305.635 357.349,306.400 356.584,306.400 356.519 C 306.400 356.216,306.052 356.519,304.581 358.100 M330.438 359.300 C 330.532 359.355,331.327 360.030,332.204 360.800 L 333.800 362.200 332.422 360.700 C 331.663 359.875,330.868 359.200,330.655 359.200 C 330.441 359.200,330.344 359.245,330.438 359.300 M68.558 360.900 C 67.331 362.229,65.897 364.122,66.663 363.400 C 67.517 362.595,70.088 359.600,69.925 359.600 C 69.833 359.600,69.217 360.185,68.558 360.900 M301.052 363.300 C 300.720 364.540,300.751 366.903,301.106 367.460 C 301.268 367.713,301.401 366.678,301.402 365.160 C 301.404 362.087,301.393 362.028,301.052 363.300 M100.114 365.400 C 100.117 366.500,100.195 366.903,100.287 366.295 C 100.379 365.686,100.377 364.786,100.282 364.295 C 100.187 363.803,100.111 364.300,100.114 365.400 M65.180 365.639 C 64.720 366.540,64.413 367.346,64.497 367.430 C 64.581 367.514,65.041 366.776,65.519 365.791 C 66.609 363.547,66.315 363.415,65.180 365.639 M337.068 369.400 C 337.371 371.377,337.602 371.714,337.594 370.167 C 337.591 369.525,337.416 368.730,337.205 368.400 C 336.945 367.991,336.901 368.310,337.068 369.400 M97.775 370.900 L 96.600 372.200 97.900 371.025 C 99.112 369.930,99.384 369.600,99.075 369.600 C 99.006 369.600,98.421 370.185,97.775 370.900 M303.943 371.500 C 304.708 372.215,305.618 372.799,305.967 372.798 C 306.315 372.796,306.060 372.514,305.400 372.171 C 304.740 371.828,303.830 371.244,303.377 370.873 C 302.924 370.503,303.179 370.785,303.943 371.500 M63.714 372.200 C 63.717 373.300,63.795 373.703,63.887 373.095 C 63.979 372.486,63.977 371.586,63.882 371.095 C 63.787 370.603,63.711 371.100,63.714 372.200 M337.259 373.800 C 337.220 374.460,337.096 375.450,336.983 376.000 L 336.777 377.000 337.208 376.014 C 337.444 375.472,337.568 374.482,337.483 373.814 L 337.328 372.600 337.259 373.800 M64.006 375.633 C 64.009 376.165,64.189 376.870,64.406 377.200 C 64.682 377.622,64.723 377.385,64.542 376.400 C 64.225 374.675,63.998 374.349,64.006 375.633 M91.095 375.884 C 90.947 376.591,90.152 377.941,89.328 378.884 C 87.921 380.495,87.910 380.526,89.150 379.400 C 90.697 377.996,91.707 376.225,91.506 375.273 C 91.424 374.881,91.252 375.135,91.095 375.884 M310.752 377.800 C 311.195 378.746,312.648 380.119,313.874 380.750 C 315.531 381.604,315.352 381.197,313.573 380.069 C 312.592 379.446,311.471 378.501,311.083 377.969 C 310.608 377.317,310.500 377.262,310.752 377.800 M64.802 378.409 C 64.799 379.193,67.004 381.872,68.131 382.454 C 68.609 382.701,68.327 382.294,67.505 381.551 C 66.683 380.808,65.739 379.660,65.408 379.000 C 65.076 378.340,64.804 378.074,64.802 378.409 M321.600 380.037 C 321.067 380.414,321.067 380.441,321.600 380.279 C 321.930 380.179,322.920 380.750,323.800 381.548 L 325.400 383.000 323.819 381.300 C 322.949 380.365,322.229 379.603,322.219 379.606 C 322.208 379.609,321.930 379.803,321.600 380.037 " stroke="none" fill="#806cff" fill-rule="evenodd"></path><path id="path1" d="M0.000 129.000 C 0.000 199.950,0.064 258.000,0.142 258.000 C 0.220 258.000,1.205 256.384,2.330 254.409 C 3.455 252.434,5.281 249.451,6.388 247.780 C 7.495 246.109,8.400 244.608,8.400 244.446 C 8.400 244.284,8.720 243.802,9.112 243.375 C 9.504 242.949,10.179 242.035,10.612 241.344 C 22.119 223.003,42.580 200.486,61.600 185.234 C 64.130 183.206,66.474 181.325,66.809 181.055 C 67.144 180.785,68.314 179.954,69.409 179.208 C 70.504 178.463,71.490 177.735,71.600 177.592 C 72.163 176.856,88.451 166.400,89.034 166.400 C 89.167 166.400,89.754 166.064,90.338 165.653 C 96.337 161.432,116.763 152.289,128.600 148.527 C 130.360 147.967,132.160 147.370,132.600 147.200 C 133.040 147.030,134.210 146.670,135.200 146.399 C 136.190 146.129,137.450 145.769,138.000 145.600 C 139.014 145.288,141.017 144.752,144.100 143.967 C 148.289 142.900,150.837 142.326,154.400 141.644 C 155.610 141.413,157.500 141.052,158.600 140.842 C 171.260 138.426,185.235 137.218,200.656 137.206 C 208.939 137.200,220.561 137.752,226.000 138.411 C 235.248 139.531,239.816 140.185,242.600 140.789 C 243.480 140.980,245.280 141.337,246.600 141.582 C 249.023 142.032,251.433 142.559,254.000 143.200 C 254.770 143.392,256.300 143.762,257.400 144.021 C 259.223 144.450,260.277 144.739,263.200 145.609 C 263.750 145.773,265.010 146.129,266.000 146.399 C 266.990 146.670,268.160 147.027,268.600 147.193 C 269.040 147.359,270.660 147.888,272.200 148.368 C 273.740 148.848,275.360 149.403,275.800 149.600 C 276.240 149.798,277.488 150.248,278.573 150.600 C 322.030 164.700,369.002 205.032,397.254 252.504 C 398.594 254.757,399.761 256.675,399.846 256.767 C 399.931 256.858,400.000 199.123,400.000 128.467 L 400.000 0.000 200.000 0.000 L 0.000 0.000 0.000 129.000 M76.927 50.595 C 77.711 50.923,78.858 51.854,79.476 52.664 L 80.600 54.137 80.800 76.600 L 81.000 99.063 82.124 100.536 C 83.895 102.857,85.203 103.200,92.294 103.200 C 100.907 103.200,103.200 104.683,103.200 110.254 C 103.200 116.170,101.391 117.197,90.962 117.199 C 80.464 117.200,77.530 116.292,72.819 111.581 C 67.164 105.926,67.200 106.141,67.200 77.843 L 67.200 53.876 68.228 52.527 C 70.038 50.154,73.847 49.308,76.927 50.595 M135.754 50.444 C 143.390 52.504,148.260 57.159,150.768 64.797 C 151.571 67.244,151.600 68.120,151.600 89.931 L 151.600 112.530 150.584 114.263 C 149.250 116.540,147.885 117.200,144.520 117.199 C 138.738 117.195,137.604 115.441,137.601 106.500 L 137.600 100.000 131.600 100.000 L 125.600 100.000 125.591 106.100 C 125.578 115.327,124.374 117.196,118.438 117.199 C 115.139 117.200,113.391 116.304,112.200 113.999 C 111.337 112.332,111.303 68.780,112.161 65.486 C 114.897 54.979,126.096 47.839,135.754 50.444 M194.259 50.590 C 198.834 52.872,199.465 59.926,195.374 63.047 C 193.871 64.194,193.826 64.201,186.832 64.404 C 182.652 64.525,179.476 64.794,179.000 65.067 C 176.385 66.568,175.500 69.053,175.676 74.400 L 175.800 78.200 184.872 78.400 C 196.569 78.658,197.800 79.343,197.800 85.600 C 197.800 91.857,196.569 92.542,184.872 92.800 L 175.800 93.000 175.600 103.219 C 175.425 112.182,175.311 113.573,174.678 114.538 C 172.019 118.591,164.534 118.208,162.455 113.913 C 161.303 111.534,161.108 69.814,162.229 65.490 C 164.122 58.181,169.626 52.616,177.000 50.552 C 179.549 49.839,192.812 49.868,194.259 50.590 M241.826 50.994 C 244.958 52.829,246.084 57.121,244.366 60.671 C 242.945 63.605,241.723 64.176,236.500 64.343 L 232.000 64.486 232.000 88.194 C 232.000 113.296,231.999 113.316,230.135 115.437 C 228.254 117.580,222.915 117.993,220.537 116.179 C 217.896 114.165,218.000 115.265,218.000 89.253 C 218.000 76.280,217.891 65.381,217.757 65.033 C 217.560 64.518,216.813 64.400,213.744 64.400 C 207.255 64.400,204.800 62.452,204.800 57.303 C 204.800 50.305,205.580 50.021,224.765 50.009 L 240.130 50.000 241.826 50.994 M286.459 50.567 C 291.123 52.516,291.784 60.217,287.547 63.240 C 286.230 64.179,285.972 64.204,276.000 64.400 L 265.800 64.600 265.689 70.369 C 265.553 77.395,264.754 76.786,274.120 76.794 C 284.347 76.802,286.151 77.847,286.184 83.779 C 286.217 89.735,284.265 90.883,273.600 91.182 L 265.800 91.400 265.800 97.200 L 265.800 103.000 276.000 103.200 C 287.115 103.418,287.228 103.441,289.061 105.844 C 291.353 108.850,290.522 114.562,287.527 116.388 C 286.257 117.162,285.552 117.197,271.080 117.199 C 254.054 117.200,254.366 117.250,252.616 114.263 L 251.600 112.530 251.600 83.914 C 251.600 51.064,251.448 52.355,255.536 50.538 C 257.217 49.791,284.664 49.817,286.459 50.567 M309.378 50.907 C 312.717 52.798,312.574 51.706,312.800 77.000 C 313.025 102.152,312.817 100.532,316.054 102.373 C 317.357 103.114,318.175 103.200,323.893 103.200 C 331.845 103.200,333.067 103.669,334.585 107.302 C 336.024 110.748,334.685 115.170,331.726 116.737 C 329.995 117.654,314.825 117.347,312.115 116.340 C 304.974 113.685,300.258 107.826,298.825 99.827 C 298.238 96.550,298.252 57.160,298.841 55.000 C 300.033 50.627,305.283 48.587,309.378 50.907 M129.817 64.672 C 126.269 65.664,125.600 67.672,125.600 77.326 L 125.600 85.200 131.600 85.200 L 137.600 85.200 137.600 77.449 C 137.600 66.501,135.515 63.078,129.817 64.672 M82.800 354.017 C 73.249 355.211,64.719 362.944,64.115 370.958 C 63.329 381.386,71.453 387.117,78.064 380.799 L 79.266 379.651 80.645 380.425 C 85.132 382.946,91.574 378.990,91.598 373.700 C 91.599 373.425,91.915 373.199,92.300 373.198 C 98.389 373.178,102.091 366.254,98.793 361.053 C 97.002 358.230,93.006 354.800,91.508 354.800 C 91.207 354.800,90.789 354.643,90.580 354.451 C 90.037 353.953,85.390 353.694,82.800 354.017 M313.600 353.871 C 301.452 355.033,296.502 370.314,307.455 372.842 C 309.382 373.287,309.482 373.378,309.945 375.111 C 311.276 380.088,316.267 382.571,320.629 380.428 L 322.200 379.655 323.800 381.171 C 331.942 388.883,341.113 376.627,335.613 365.382 C 334.181 362.454,327.852 356.400,326.224 356.400 C 326.096 356.400,325.228 356.064,324.296 355.652 C 321.016 354.206,317.033 353.543,313.600 353.871 " stroke="none" fill="#fbfbfb" fill-rule="evenodd"></path><path id="path2" d="M182.800 138.070 C 171.596 138.990,160.900 140.564,150.300 142.854 C 142.551 144.527,125.738 149.434,121.800 151.171 C 121.360 151.365,119.470 152.110,117.600 152.826 C 115.730 153.543,114.020 154.250,113.800 154.399 C 113.580 154.548,112.320 155.090,111.000 155.604 C 107.764 156.863,91.690 165.019,88.200 167.172 C 86.660 168.122,84.811 169.236,84.090 169.648 C 55.716 185.873,24.114 218.748,2.848 254.163 L -0.012 258.926 0.094 270.163 L 0.200 281.400 2.421 277.000 C 7.035 267.862,11.236 260.480,17.221 251.000 C 20.940 245.109,27.056 236.603,32.177 230.200 C 53.368 203.702,77.468 183.726,105.002 169.834 C 111.842 166.382,113.253 165.718,117.000 164.180 C 117.880 163.819,119.140 163.285,119.800 162.993 C 127.194 159.726,142.749 154.832,152.200 152.800 C 153.080 152.611,154.610 152.278,155.600 152.060 C 176.117 147.552,206.123 146.258,226.800 148.990 C 236.689 150.297,239.862 150.828,247.400 152.439 C 253.770 153.801,262.988 156.271,267.400 157.799 C 268.280 158.103,270.620 158.913,272.600 159.599 C 274.580 160.284,277.100 161.218,278.200 161.675 C 279.300 162.131,280.560 162.643,281.000 162.812 C 290.147 166.332,304.767 173.990,315.200 180.727 C 345.115 200.043,373.719 231.460,392.107 265.200 C 392.767 266.410,393.623 267.940,394.010 268.600 C 394.397 269.260,395.859 272.050,397.257 274.800 L 399.800 279.800 399.906 268.763 L 400.012 257.726 397.211 253.075 C 383.123 229.680,367.553 210.709,347.573 192.592 C 332.671 179.078,308.130 163.138,291.600 156.234 C 290.610 155.820,288.990 155.130,288.000 154.701 C 286.184 153.913,285.147 153.487,283.500 152.854 C 283.005 152.663,282.150 152.320,281.600 152.091 C 272.925 148.479,255.066 143.359,244.900 141.570 C 239.141 140.556,237.907 140.356,234.200 139.837 C 229.546 139.185,224.081 138.584,217.577 138.009 C 212.160 137.530,188.879 137.571,182.800 138.070 M163.600 215.533 C 158.573 218.075,149.708 220.400,145.048 220.400 C 140.827 220.400,138.890 226.213,142.167 229.046 C 147.445 233.608,172.805 225.425,172.799 219.162 C 172.793 214.510,168.767 212.921,163.600 215.533 M230.919 214.784 C 228.562 216.221,227.664 219.555,229.082 221.611 C 232.468 226.524,253.772 232.365,258.281 229.616 C 262.437 227.082,260.772 220.400,255.984 220.400 C 251.238 220.400,242.614 218.142,237.506 215.562 C 234.026 213.805,232.769 213.656,230.919 214.784 M179.446 240.835 C 170.933 247.531,190.305 261.407,206.555 260.253 C 213.287 259.775,223.124 256.344,225.161 253.763 C 228.608 249.396,222.901 243.935,217.853 246.770 C 212.319 249.878,203.076 250.967,197.569 249.158 C 192.856 247.612,191.376 246.678,187.135 242.577 C 184.068 239.611,181.687 239.072,179.446 240.835 M43.657 296.213 C 42.224 297.419,41.436 299.541,41.802 301.207 C 42.547 304.600,47.151 317.659,49.237 322.296 C 49.657 323.228,50.000 324.090,50.000 324.212 C 50.000 325.415,58.921 342.266,62.442 347.713 C 64.436 350.799,64.415 350.974,61.741 353.600 C 54.410 360.799,52.046 369.742,54.731 380.118 C 57.370 390.314,68.971 396.437,78.459 392.642 C 80.397 391.866,81.779 391.600,83.865 391.600 C 89.840 391.600,95.456 388.660,98.819 383.773 C 99.478 382.815,100.985 381.389,102.169 380.603 C 112.110 374.005,113.268 361.230,104.774 351.883 C 97.587 343.973,88.207 341.548,76.882 344.673 C 74.838 345.237,73.083 345.616,72.983 345.516 C 69.208 341.742,57.634 317.436,53.404 304.400 C 52.368 301.210,51.314 298.166,51.061 297.635 C 49.888 295.179,45.816 294.397,43.657 296.213 M351.950 295.802 C 350.864 296.393,349.731 298.487,348.815 301.600 C 345.450 313.030,338.954 327.854,332.768 338.222 C 327.800 346.547,328.668 345.915,324.084 344.549 C 299.185 337.132,278.255 367.065,298.965 380.473 C 300.344 381.365,301.867 382.796,302.618 383.902 C 305.847 388.660,310.374 391.049,317.200 391.601 C 319.420 391.780,321.998 392.276,323.400 392.794 C 332.668 396.217,343.548 390.349,346.381 380.400 C 346.663 379.410,347.052 378.078,347.247 377.440 C 349.437 370.252,345.187 357.885,338.750 352.712 C 336.834 351.172,336.828 350.740,338.683 347.995 C 340.456 345.370,346.132 335.251,347.879 331.600 C 349.702 327.788,351.600 323.607,351.600 323.400 C 351.600 323.301,352.140 322.041,352.800 320.600 C 353.460 319.159,354.000 317.744,354.000 317.457 C 354.000 317.169,354.119 316.814,354.265 316.668 C 354.729 316.205,357.688 307.612,359.001 302.918 C 360.558 297.351,356.548 293.304,351.950 295.802 M89.305 353.779 C 100.981 356.569,104.454 370.017,94.296 373.101 C 93.029 373.485,91.921 374.070,91.833 374.400 C 91.746 374.730,91.565 375.492,91.431 376.093 C 90.543 380.090,84.395 382.676,80.540 380.675 C 79.373 380.069,79.241 380.069,78.740 380.679 C 72.836 387.868,63.735 382.447,63.833 371.800 C 63.932 360.985,77.953 351.066,89.305 353.779 M319.400 353.800 C 333.313 356.406,341.948 370.279,335.708 380.000 C 332.930 384.328,326.178 384.880,323.082 381.033 C 322.307 380.069,322.246 380.059,321.042 380.689 C 316.745 382.936,310.850 380.197,309.640 375.393 C 309.233 373.776,309.102 373.656,307.265 373.216 C 300.280 371.540,298.717 364.224,304.122 358.508 C 308.440 353.942,312.872 352.577,319.400 353.800 " stroke="none" fill="#050507" fill-rule="evenodd"></path><path id="path3" d="M70.528 50.622 C 69.829 50.929,68.794 51.786,68.228 52.527 L 67.200 53.876 67.200 77.843 C 67.200 106.141,67.164 105.926,72.819 111.581 C 77.530 116.292,80.464 117.200,90.962 117.199 C 101.391 117.197,103.200 116.170,103.200 110.254 C 103.200 104.683,100.907 103.200,92.294 103.200 C 85.203 103.200,83.895 102.857,82.124 100.536 L 81.000 99.063 80.800 76.600 L 80.600 54.137 79.476 52.664 C 77.574 50.171,73.619 49.269,70.528 50.622 M126.707 50.617 C 119.696 52.534,114.024 58.332,112.161 65.486 C 111.303 68.780,111.337 112.332,112.200 113.999 C 113.391 116.304,115.139 117.200,118.438 117.199 C 124.374 117.196,125.578 115.327,125.591 106.100 L 125.600 100.000 131.600 100.000 L 137.600 100.000 137.601 106.500 C 137.604 115.441,138.738 117.195,144.520 117.199 C 147.885 117.200,149.250 116.540,150.584 114.263 L 151.600 112.530 151.600 89.931 C 151.600 68.120,151.571 67.244,150.768 64.797 C 147.205 53.943,136.853 47.843,126.707 50.617 M177.000 50.552 C 169.626 52.616,164.122 58.181,162.229 65.490 C 161.108 69.814,161.303 111.534,162.455 113.913 C 164.534 118.208,172.019 118.591,174.678 114.538 C 175.311 113.573,175.425 112.182,175.600 103.219 L 175.800 93.000 184.872 92.800 C 196.569 92.542,197.800 91.857,197.800 85.600 C 197.800 79.343,196.569 78.658,184.872 78.400 L 175.800 78.200 175.676 74.400 C 175.500 69.053,176.385 66.568,179.000 65.067 C 179.476 64.794,182.652 64.525,186.832 64.404 C 193.826 64.201,193.871 64.194,195.374 63.047 C 199.465 59.926,198.834 52.872,194.259 50.590 C 192.812 49.868,179.549 49.839,177.000 50.552 M208.000 50.831 C 203.249 53.587,203.662 61.763,208.657 63.850 C 209.459 64.185,211.449 64.400,213.744 64.400 C 216.813 64.400,217.560 64.518,217.757 65.033 C 217.891 65.381,218.000 76.280,218.000 89.253 C 218.000 115.265,217.896 114.165,220.537 116.179 C 222.915 117.993,228.254 117.580,230.135 115.437 C 231.999 113.316,232.000 113.296,232.000 88.194 L 232.000 64.486 236.500 64.343 C 241.723 64.176,242.945 63.605,244.366 60.671 C 246.084 57.121,244.958 52.829,241.826 50.994 L 240.130 50.000 224.765 50.009 C 210.058 50.018,209.340 50.053,208.000 50.831 M255.536 50.538 C 251.448 52.355,251.600 51.064,251.600 83.914 L 251.600 112.530 252.616 114.263 C 254.366 117.250,254.054 117.200,271.080 117.199 C 285.552 117.197,286.257 117.162,287.527 116.388 C 290.522 114.562,291.353 108.850,289.061 105.844 C 287.228 103.441,287.115 103.418,276.000 103.200 L 265.800 103.000 265.800 97.200 L 265.800 91.400 273.600 91.182 C 284.265 90.883,286.217 89.735,286.184 83.779 C 286.151 77.847,284.347 76.802,274.120 76.794 C 264.754 76.786,265.553 77.395,265.689 70.369 L 265.800 64.600 276.000 64.400 C 285.972 64.204,286.230 64.179,287.547 63.240 C 291.784 60.217,291.123 52.516,286.459 50.567 C 284.664 49.817,257.217 49.791,255.536 50.538 M302.200 50.748 C 300.394 51.870,299.325 53.223,298.841 55.000 C 298.252 57.160,298.238 96.550,298.825 99.827 C 300.258 107.826,304.974 113.685,312.115 116.340 C 314.825 117.347,329.995 117.654,331.726 116.737 C 334.685 115.170,336.024 110.748,334.585 107.302 C 333.067 103.669,331.845 103.200,323.893 103.200 C 318.175 103.200,317.357 103.114,316.054 102.373 C 312.817 100.532,313.025 102.152,312.800 77.000 C 312.606 55.307,312.574 54.556,311.778 53.200 C 310.056 50.269,305.039 48.985,302.200 50.748 M135.315 65.904 C 137.382 67.873,137.600 68.976,137.600 77.449 L 137.600 85.200 131.600 85.200 L 125.600 85.200 125.600 77.326 C 125.600 68.775,126.007 66.874,128.136 65.479 C 130.309 64.055,133.577 64.249,135.315 65.904 M195.500 137.499 C 198.415 137.567,203.185 137.567,206.100 137.499 C 209.015 137.431,206.630 137.375,200.800 137.375 C 194.970 137.375,192.585 137.431,195.500 137.499 M183.305 137.887 C 183.914 137.979,184.814 137.977,185.305 137.882 C 185.797 137.787,185.300 137.711,184.200 137.714 C 183.100 137.717,182.697 137.795,183.305 137.887 M216.300 137.882 C 216.795 137.978,217.605 137.978,218.100 137.882 C 218.595 137.787,218.190 137.709,217.200 137.709 C 216.210 137.709,215.805 137.787,216.300 137.882 M178.300 138.289 C 179.015 138.378,180.185 138.378,180.900 138.289 C 181.615 138.201,181.030 138.128,179.600 138.128 C 178.170 138.128,177.585 138.201,178.300 138.289 M220.291 138.289 C 221.001 138.377,222.261 138.379,223.091 138.292 C 223.921 138.205,223.340 138.133,221.800 138.131 C 220.260 138.129,219.581 138.200,220.291 138.289 M170.905 139.087 C 171.514 139.179,172.414 139.177,172.905 139.082 C 173.397 138.987,172.900 138.911,171.800 138.914 C 170.700 138.917,170.297 138.995,170.905 139.087 M228.505 139.087 C 229.114 139.179,230.014 139.177,230.505 139.082 C 230.997 138.987,230.500 138.911,229.400 138.914 C 228.300 138.917,227.897 138.995,228.505 139.087 M163.200 140.007 C 162.579 140.211,163.109 140.251,164.600 140.112 C 165.920 139.989,167.075 139.824,167.167 139.744 C 167.489 139.465,164.188 139.684,163.200 140.007 M235.105 139.883 C 235.602 139.979,236.322 139.975,236.705 139.875 C 237.087 139.775,236.680 139.696,235.800 139.701 C 234.920 139.705,234.607 139.787,235.105 139.883 M160.100 140.676 C 160.485 140.776,161.115 140.776,161.500 140.676 C 161.885 140.575,161.570 140.493,160.800 140.493 C 160.030 140.493,159.715 140.575,160.100 140.676 M239.633 140.544 C 239.725 140.624,240.610 140.796,241.600 140.927 C 242.802 141.086,243.134 141.047,242.600 140.810 C 241.836 140.472,239.286 140.243,239.633 140.544 M155.700 141.476 C 156.085 141.576,156.715 141.576,157.100 141.476 C 157.485 141.375,157.170 141.293,156.400 141.293 C 155.630 141.293,155.315 141.375,155.700 141.476 M244.100 141.476 C 244.485 141.576,245.115 141.576,245.500 141.476 C 245.885 141.375,245.570 141.293,244.800 141.293 C 244.030 141.293,243.715 141.375,244.100 141.476 M150.600 142.419 C 150.042 142.671,150.285 142.707,151.400 142.538 C 152.280 142.404,153.075 142.228,153.167 142.147 C 153.510 141.844,151.368 142.071,150.600 142.419 M248.033 142.147 C 248.125 142.228,248.920 142.404,249.800 142.538 C 250.915 142.707,251.158 142.671,250.600 142.419 C 249.832 142.071,247.690 141.844,248.033 142.147 M147.200 143.206 C 146.778 143.482,147.015 143.523,148.000 143.342 C 149.725 143.025,150.051 142.798,148.767 142.806 C 148.235 142.809,147.530 142.989,147.200 143.206 M252.033 142.944 C 252.125 143.023,252.740 143.208,253.400 143.356 C 254.276 143.552,254.438 143.515,254.000 143.218 C 253.460 142.853,251.632 142.598,252.033 142.944 M144.000 144.018 C 143.562 144.315,143.724 144.352,144.600 144.156 C 146.071 143.827,146.390 143.598,145.367 143.606 C 144.945 143.609,144.330 143.795,144.000 144.018 M256.200 144.000 C 256.640 144.189,257.270 144.344,257.600 144.344 C 257.978 144.344,257.904 144.217,257.400 144.000 C 256.960 143.811,256.330 143.656,256.000 143.656 C 255.622 143.656,255.696 143.783,256.200 144.000 M140.800 144.818 C 140.362 145.115,140.524 145.152,141.400 144.956 C 142.871 144.627,143.190 144.398,142.167 144.406 C 141.745 144.409,141.130 144.595,140.800 144.818 M258.433 144.544 C 258.525 144.623,259.140 144.808,259.800 144.956 C 260.676 145.152,260.838 145.115,260.400 144.818 C 259.860 144.453,258.032 144.198,258.433 144.544 M189.600 148.219 C 189.270 148.310,186.390 148.578,183.200 148.812 C 174.296 149.467,169.022 150.089,163.000 151.193 C 161.680 151.436,159.589 151.806,158.353 152.017 C 156.070 152.407,148.153 154.180,145.600 154.873 C 144.830 155.082,143.570 155.407,142.800 155.596 C 140.359 156.192,139.422 156.458,138.600 156.786 C 138.160 156.961,136.450 157.508,134.800 158.000 C 131.750 158.910,130.351 159.413,129.105 160.047 C 128.723 160.241,128.136 160.400,127.800 160.400 C 127.464 160.400,126.877 160.559,126.495 160.753 C 126.113 160.948,125.305 161.308,124.700 161.553 C 124.095 161.799,123.105 162.204,122.500 162.454 C 121.895 162.703,120.995 163.063,120.500 163.254 C 116.779 164.686,113.054 166.393,105.417 170.164 C 101.448 172.124,98.110 173.834,98.000 173.964 C 97.810 174.188,95.238 175.609,93.303 176.560 C 92.810 176.802,92.405 177.135,92.403 177.300 C 92.401 177.465,92.204 177.600,91.965 177.600 C 91.545 177.600,75.605 188.218,75.200 188.767 C 75.090 188.916,74.370 189.474,73.600 190.006 C 72.830 190.538,72.004 191.160,71.763 191.387 C 71.523 191.614,70.730 192.250,70.000 192.800 C 69.270 193.350,68.477 193.980,68.237 194.200 C 67.996 194.420,66.188 195.950,64.217 197.600 C 54.202 205.986,42.335 218.172,34.029 228.600 C 30.185 233.426,30.437 233.103,28.400 235.809 C 27.410 237.124,26.381 238.432,26.114 238.715 C 25.847 238.998,25.313 239.763,24.928 240.415 C 24.543 241.067,24.086 241.600,23.914 241.600 C 23.741 241.600,23.600 241.836,23.600 242.125 C 23.600 242.413,23.285 242.999,22.900 243.427 C 22.150 244.259,16.800 252.277,16.800 252.567 C 16.800 252.663,15.900 254.100,14.800 255.761 C 13.700 257.422,12.800 258.966,12.800 259.191 C 12.800 259.416,12.641 259.600,12.447 259.600 C 12.252 259.600,11.990 259.915,11.864 260.300 C 11.738 260.685,11.149 261.810,10.555 262.800 C 8.831 265.674,7.275 268.576,3.904 275.200 C 2.169 278.610,0.580 281.571,0.374 281.780 C 0.145 282.013,0.000 305.016,0.000 341.080 L 0.000 400.000 16.900 400.000 L 33.800 400.000 33.661 398.001 C 33.412 394.400,36.117 391.187,42.316 387.720 C 45.140 386.141,52.946 382.800,53.811 382.800 C 54.559 382.800,54.722 382.009,54.308 380.400 C 52.577 373.670,52.569 369.763,54.277 364.400 C 55.003 362.120,56.867 358.400,57.284 358.400 C 57.458 358.400,57.600 358.152,57.600 357.849 C 57.600 357.545,58.944 355.880,60.586 354.149 C 64.132 350.410,64.024 350.996,61.800 347.558 C 60.810 346.027,60.000 344.601,60.000 344.388 C 60.000 344.174,59.865 343.999,59.700 343.997 C 59.535 343.995,59.201 343.590,58.959 343.097 C 58.716 342.604,57.924 341.120,57.200 339.800 C 53.358 332.802,50.388 326.501,47.111 318.400 C 46.889 317.850,46.548 317.087,46.353 316.705 C 46.159 316.323,46.000 315.736,46.000 315.400 C 46.000 315.064,45.841 314.477,45.647 314.095 C 45.014 312.851,44.462 311.431,43.977 309.800 C 43.716 308.920,43.344 307.887,43.151 307.505 C 42.958 307.123,42.800 306.459,42.800 306.029 C 42.800 305.599,42.620 305.136,42.400 305.000 C 42.180 304.864,42.000 304.234,42.000 303.600 C 42.000 302.966,41.820 302.336,41.600 302.200 C 41.035 301.851,41.103 298.959,41.700 297.917 C 42.398 296.699,43.881 295.200,44.387 295.200 C 44.620 295.200,45.153 294.986,45.572 294.725 C 47.808 293.328,51.445 296.194,52.567 300.238 C 53.564 303.834,54.734 307.568,55.216 308.700 C 55.860 310.211,56.297 311.336,56.807 312.800 C 57.075 313.570,57.633 314.963,58.047 315.896 C 58.461 316.828,58.800 317.863,58.800 318.196 C 58.800 318.528,58.980 318.800,59.200 318.800 C 59.420 318.800,59.600 319.053,59.600 319.362 C 59.600 319.941,59.728 320.221,63.095 327.000 C 66.350 333.555,71.595 342.887,72.426 343.600 C 72.554 343.710,72.775 344.115,72.917 344.500 C 73.195 345.254,74.595 345.455,75.000 344.800 C 75.136 344.580,75.676 344.400,76.200 344.400 C 76.724 344.400,77.264 344.220,77.400 344.000 C 77.536 343.780,78.411 343.600,79.344 343.600 C 80.277 343.600,81.232 343.408,81.468 343.172 C 82.254 342.386,91.226 343.100,94.200 344.184 C 98.285 345.675,104.330 349.873,105.889 352.303 C 106.277 352.906,106.886 353.723,107.243 354.118 C 107.600 354.512,108.299 355.682,108.797 356.718 C 111.186 361.690,111.558 364.300,110.568 369.160 L 110.291 370.521 112.646 370.277 C 113.941 370.143,116.620 369.838,118.600 369.601 C 143.417 366.621,169.148 365.245,200.000 365.247 C 231.468 365.249,258.326 366.675,282.200 369.611 C 290.712 370.658,291.246 370.683,290.922 370.016 C 290.423 368.986,290.298 361.542,290.772 361.068 C 291.008 360.832,291.200 360.237,291.200 359.744 C 291.200 359.251,291.380 358.736,291.600 358.600 C 291.820 358.464,292.000 358.003,292.000 357.576 C 292.000 357.149,292.180 356.800,292.400 356.800 C 292.620 356.800,292.800 356.607,292.800 356.372 C 292.800 353.569,303.536 344.400,306.817 344.400 C 307.222 344.400,307.652 344.239,307.774 344.042 C 308.746 342.469,320.794 342.818,325.709 344.561 C 327.273 345.116,327.711 345.144,328.127 344.719 C 329.246 343.576,334.997 333.418,338.045 327.200 C 339.825 323.570,341.443 320.287,341.640 319.905 C 341.838 319.523,342.000 318.938,342.000 318.605 C 342.000 318.272,342.180 318.000,342.400 318.000 C 342.620 318.000,342.800 317.728,342.800 317.395 C 342.800 317.062,342.959 316.477,343.153 316.095 C 343.348 315.713,343.684 314.950,343.900 314.400 C 344.116 313.850,344.521 312.860,344.800 312.200 C 345.483 310.584,345.801 309.694,346.371 307.800 C 346.636 306.920,347.002 305.840,347.185 305.400 C 347.368 304.960,347.941 303.106,348.459 301.279 C 350.375 294.518,354.652 292.510,358.583 296.525 C 359.861 297.832,360.314 302.646,359.257 303.703 C 359.006 303.954,358.800 304.653,358.800 305.256 C 358.800 305.859,358.620 306.464,358.400 306.600 C 358.180 306.736,358.000 307.276,358.000 307.800 C 358.000 308.324,357.820 308.864,357.600 309.000 C 357.380 309.136,357.200 309.651,357.200 310.144 C 357.200 310.637,357.057 311.211,356.882 311.420 C 356.707 311.629,356.335 312.520,356.055 313.400 C 355.776 314.280,355.397 315.360,355.214 315.800 C 355.032 316.240,354.125 318.490,353.200 320.800 C 350.270 328.118,346.498 335.844,343.045 341.600 C 342.451 342.590,341.862 343.715,341.736 344.100 C 341.610 344.485,341.348 344.800,341.153 344.800 C 340.959 344.800,340.800 345.003,340.800 345.251 C 340.800 345.500,340.080 346.758,339.200 348.047 C 337.235 350.926,337.213 350.592,339.517 352.780 C 340.571 353.781,341.870 355.230,342.404 356.000 C 342.937 356.770,343.591 357.624,343.857 357.898 C 344.664 358.732,346.744 363.368,347.582 366.200 C 348.369 368.862,347.725 380.428,346.756 381.027 C 345.855 381.584,346.474 382.628,347.982 383.099 C 359.241 386.613,367.657 393.266,367.100 398.211 L 366.898 400.000 383.449 400.000 L 400.000 400.000 400.000 340.280 C 400.000 306.811,399.846 280.393,399.651 280.180 C 399.459 279.971,397.977 277.190,396.358 274.000 C 394.738 270.810,393.320 268.110,393.207 268.000 C 393.093 267.890,392.626 267.080,392.170 266.200 C 391.094 264.127,390.251 262.651,389.999 262.400 C 389.889 262.290,389.529 261.660,389.200 261.000 C 388.871 260.340,388.511 259.710,388.401 259.600 C 388.290 259.490,387.942 258.950,387.627 258.400 C 385.644 254.936,377.341 242.054,376.800 241.600 C 376.669 241.490,376.129 240.770,375.600 240.000 C 375.071 239.230,374.531 238.510,374.400 238.400 C 374.269 238.290,373.729 237.570,373.200 236.800 C 372.671 236.030,372.139 235.310,372.018 235.200 C 371.897 235.090,370.991 233.920,370.005 232.600 C 360.822 220.309,345.088 204.036,333.455 194.800 C 333.040 194.470,332.317 193.836,331.850 193.391 C 331.382 192.947,330.370 192.145,329.600 191.611 C 328.830 191.076,328.110 190.531,328.000 190.400 C 327.890 190.269,327.170 189.725,326.400 189.192 C 325.630 188.658,324.820 188.079,324.600 187.905 C 321.486 185.439,310.979 178.400,310.412 178.400 C 310.185 178.400,310.000 178.241,310.000 178.047 C 310.000 177.852,309.685 177.593,309.300 177.471 C 308.615 177.254,306.396 175.996,306.000 175.600 C 305.178 174.778,286.386 165.454,282.600 163.989 C 282.160 163.819,280.947 163.302,279.904 162.840 C 278.862 162.378,277.824 162.000,277.599 162.000 C 277.374 162.000,276.877 161.841,276.495 161.647 C 276.113 161.452,275.260 161.071,274.600 160.800 C 273.940 160.529,273.087 160.148,272.705 159.953 C 272.323 159.759,271.659 159.600,271.229 159.600 C 270.799 159.600,270.336 159.420,270.200 159.200 C 270.064 158.980,269.524 158.800,269.000 158.800 C 268.476 158.800,267.936 158.620,267.800 158.400 C 267.664 158.180,267.124 158.000,266.600 158.000 C 266.076 158.000,265.549 157.841,265.429 157.646 C 265.308 157.451,264.713 157.196,264.105 157.079 C 263.497 156.962,262.370 156.681,261.600 156.455 C 259.172 155.744,257.048 155.158,255.600 154.803 C 243.094 151.727,231.703 149.837,219.200 148.762 C 214.742 148.379,190.615 147.936,189.600 148.219 M125.200 149.600 C 124.667 149.945,124.667 149.988,125.200 149.988 C 125.530 149.988,126.070 149.813,126.400 149.600 C 126.933 149.255,126.933 149.212,126.400 149.212 C 126.070 149.212,125.530 149.387,125.200 149.600 M110.200 155.578 C 109.320 155.995,108.713 156.350,108.851 156.368 C 109.240 156.418,112.000 155.214,112.000 154.995 C 112.000 154.727,111.999 154.727,110.200 155.578 M289.200 154.989 C 289.200 155.306,292.100 156.433,292.328 156.205 C 292.441 156.092,292.435 156.000,292.316 156.000 C 292.196 156.000,291.446 155.728,290.649 155.395 C 289.852 155.062,289.200 154.879,289.200 154.989 M292.800 156.558 C 292.800 156.670,293.475 157.071,294.300 157.448 C 295.125 157.826,295.935 158.205,296.100 158.291 C 296.265 158.377,296.400 158.355,296.400 158.242 C 296.400 158.130,295.725 157.729,294.900 157.352 C 294.075 156.974,293.265 156.595,293.100 156.509 C 292.935 156.423,292.800 156.445,292.800 156.558 M102.908 158.888 C 101.538 159.582,100.480 160.213,100.558 160.291 C 100.635 160.369,101.937 159.801,103.449 159.030 C 104.962 158.258,106.020 157.627,105.800 157.627 C 105.580 157.626,104.279 158.194,102.908 158.888 M97.600 161.633 L 96.600 162.448 97.900 161.814 C 98.615 161.465,99.200 161.094,99.200 160.990 C 99.200 160.592,98.563 160.848,97.600 161.633 M309.200 164.979 C 309.200 165.089,309.740 165.459,310.400 165.800 C 311.060 166.141,311.600 166.331,311.600 166.221 C 311.600 166.111,311.060 165.741,310.400 165.400 C 309.740 165.059,309.200 164.869,309.200 164.979 M312.000 166.579 C 312.000 166.689,312.540 167.059,313.200 167.400 C 313.860 167.741,314.400 167.931,314.400 167.821 C 314.400 167.711,313.860 167.341,313.200 167.000 C 312.540 166.659,312.000 166.469,312.000 166.579 M85.896 168.150 C 83.975 169.331,83.438 169.889,85.000 169.081 C 86.254 168.433,87.945 167.226,87.600 167.225 C 87.490 167.225,86.723 167.641,85.896 168.150 M316.600 169.407 C 317.040 169.766,317.760 170.235,318.200 170.451 L 319.000 170.844 318.200 170.193 C 317.760 169.834,317.040 169.365,316.600 169.149 L 315.800 168.756 316.600 169.407 M79.396 172.252 C 76.560 174.131,74.801 175.564,77.000 174.205 C 80.647 171.950,82.804 170.400,82.296 170.400 C 82.238 170.400,80.933 171.233,79.396 172.252 M73.507 176.126 C 72.466 176.826,71.611 177.535,71.607 177.699 C 71.603 177.864,72.500 177.352,73.600 176.562 C 74.700 175.772,75.600 175.052,75.600 174.962 C 75.600 174.721,75.558 174.745,73.507 176.126 M328.800 177.325 C 328.800 177.424,329.461 178.009,330.268 178.625 C 331.076 179.241,331.611 179.541,331.456 179.291 C 331.140 178.779,328.800 177.047,328.800 177.325 M332.000 179.725 C 332.000 179.824,332.661 180.409,333.468 181.025 C 334.276 181.641,334.811 181.941,334.656 181.691 C 334.340 181.179,332.000 179.447,332.000 179.725 M65.185 182.432 L 63.800 183.663 65.088 182.813 C 66.230 182.059,67.093 181.200,66.708 181.200 C 66.632 181.200,65.947 181.754,65.185 182.432 M335.200 182.085 C 335.200 182.186,336.861 183.603,338.891 185.234 C 340.921 186.865,344.026 189.429,345.791 190.931 C 348.553 193.281,348.666 193.346,346.600 191.395 C 345.280 190.149,342.400 187.678,340.200 185.905 C 335.074 181.774,335.200 181.870,335.200 182.085 M57.200 188.857 L 55.000 190.889 57.099 189.208 C 58.939 187.734,59.913 186.773,59.524 186.813 C 59.456 186.820,58.410 187.740,57.200 188.857 M52.581 192.900 L 51.000 194.600 52.794 193.000 C 53.780 192.120,54.665 191.355,54.761 191.300 C 54.856 191.245,54.760 191.200,54.548 191.200 C 54.336 191.200,53.451 191.965,52.581 192.900 M352.179 196.690 C 353.927 198.497,355.431 199.902,355.521 199.812 C 355.690 199.644,355.387 199.337,351.366 195.602 C 349.731 194.083,349.982 194.419,352.179 196.690 M48.400 196.546 C 47.190 197.718,45.940 199.019,45.623 199.438 C 45.306 199.857,46.341 198.945,47.923 197.411 C 50.551 194.863,50.993 194.384,50.700 194.408 C 50.645 194.412,49.610 195.375,48.400 196.546 M36.182 208.900 C 33.154 212.095,31.033 214.598,33.376 212.212 C 36.774 208.750,38.574 206.800,38.370 206.800 C 38.261 206.800,37.277 207.745,36.182 208.900 M365.776 210.500 C 367.729 212.645,369.407 214.400,369.505 214.400 C 369.757 214.400,364.293 208.374,363.159 207.400 C 362.646 206.960,363.824 208.355,365.776 210.500 M169.174 213.855 C 171.944 214.409,173.606 217.521,172.879 220.795 C 172.547 222.292,169.265 225.194,167.900 225.198 C 167.515 225.199,167.200 225.380,167.200 225.600 C 167.200 225.820,166.928 226.000,166.595 226.000 C 166.262 226.000,165.677 226.159,165.295 226.353 C 164.913 226.548,164.060 226.929,163.400 227.200 C 162.740 227.471,161.887 227.852,161.505 228.047 C 161.123 228.241,160.369 228.400,159.829 228.400 C 159.289 228.400,158.748 228.561,158.626 228.758 C 158.505 228.955,157.729 229.215,156.903 229.337 C 156.076 229.459,154.410 229.768,153.200 230.022 C 151.990 230.277,149.290 230.567,147.200 230.666 L 143.400 230.846 141.900 229.469 C 141.075 228.712,140.400 227.812,140.400 227.470 C 140.400 227.127,140.220 226.736,140.000 226.600 C 139.780 226.464,139.600 225.924,139.600 225.400 C 139.600 224.876,139.780 224.336,140.000 224.200 C 140.220 224.064,140.400 223.661,140.400 223.305 C 140.400 222.326,143.147 220.000,144.304 220.000 C 145.382 220.000,149.235 219.419,152.800 218.719 C 155.887 218.113,160.471 216.581,162.923 215.336 C 166.199 213.672,167.143 213.449,169.174 213.855 M238.282 215.339 C 243.321 217.814,252.026 220.000,256.846 220.000 C 258.877 220.000,261.200 222.881,261.200 225.400 C 261.200 230.890,255.619 232.124,244.000 229.203 C 243.010 228.954,241.703 228.651,241.095 228.529 C 240.487 228.407,239.892 228.149,239.771 227.954 C 239.651 227.759,239.124 227.600,238.600 227.600 C 238.076 227.600,237.536 227.420,237.400 227.200 C 237.264 226.980,236.803 226.800,236.376 226.800 C 235.949 226.800,235.600 226.620,235.600 226.400 C 235.600 226.180,235.335 226.000,235.011 226.000 C 234.687 226.000,233.652 225.542,232.711 224.982 C 231.770 224.423,230.730 223.873,230.400 223.762 C 228.183 223.011,227.298 218.363,228.914 215.959 C 230.710 213.287,233.702 213.089,238.282 215.339 M29.626 216.122 L 28.651 217.400 29.926 216.225 C 31.251 215.003,31.403 214.785,30.900 214.822 C 30.735 214.834,30.162 215.419,29.626 216.122 M369.600 214.925 C 369.600 214.994,370.173 215.579,370.874 216.225 L 372.149 217.400 371.174 216.122 C 370.347 215.037,369.600 214.469,369.600 214.925 M27.568 218.700 C 25.209 221.343,24.674 222.000,24.882 222.000 C 25.003 222.000,25.949 221.010,26.982 219.800 C 28.896 217.560,29.355 216.698,27.568 218.700 M376.036 222.567 C 378.273 225.335,380.198 227.600,380.313 227.600 C 380.429 227.600,380.256 227.285,379.928 226.900 C 379.601 226.515,377.862 224.365,376.065 222.123 C 374.268 219.881,372.612 217.931,372.384 217.790 C 372.156 217.649,373.800 219.799,376.036 222.567 M23.932 223.100 C 22.116 225.249,20.257 227.721,20.621 227.502 C 21.102 227.214,24.940 222.400,24.689 222.400 C 24.598 222.400,24.258 222.715,23.932 223.100 M18.975 229.468 C 18.359 230.276,18.059 230.811,18.309 230.656 C 18.821 230.340,20.553 228.000,20.275 228.000 C 20.176 228.000,19.591 228.661,18.975 229.468 M381.191 229.188 C 381.657 229.841,382.242 230.502,382.491 230.656 C 382.741 230.811,382.441 230.276,381.825 229.468 C 380.488 227.715,379.984 227.492,381.191 229.188 M17.315 231.700 C 15.581 233.967,14.666 235.320,15.009 235.113 C 15.481 234.827,18.137 231.200,17.874 231.200 C 17.777 231.200,17.526 231.425,17.315 231.700 M385.008 234.358 C 385.815 235.481,386.557 236.400,386.657 236.400 C 386.932 236.400,384.452 232.880,383.966 232.579 C 383.732 232.435,384.201 233.235,385.008 234.358 M11.523 239.900 C 10.818 240.721,10.290 241.600,10.501 241.600 C 10.583 241.600,11.049 241.060,11.537 240.400 C 12.501 239.096,12.492 238.772,11.523 239.900 M187.923 242.749 C 195.911 250.515,206.627 251.765,217.975 246.256 C 220.210 245.171,222.164 244.894,222.600 245.600 C 222.736 245.820,223.115 246.000,223.442 246.000 C 224.212 246.000,226.000 247.788,226.000 248.558 C 226.000 248.885,226.180 249.264,226.400 249.400 C 226.620 249.536,226.800 250.166,226.800 250.800 C 226.800 251.434,226.620 252.064,226.400 252.200 C 226.180 252.336,226.000 252.714,226.000 253.041 C 226.000 254.386,224.068 255.706,219.200 257.687 C 218.650 257.910,217.887 258.252,217.505 258.447 C 217.123 258.641,216.459 258.800,216.029 258.800 C 215.599 258.800,215.136 258.980,215.000 259.200 C 214.864 259.420,214.169 259.600,213.456 259.600 C 212.743 259.600,211.947 259.813,211.686 260.074 C 211.357 260.403,209.069 260.547,204.200 260.547 C 199.331 260.547,197.043 260.403,196.714 260.074 C 196.453 259.813,195.747 259.600,195.144 259.600 C 194.541 259.600,193.936 259.420,193.800 259.200 C 193.664 258.980,193.276 258.800,192.937 258.800 C 190.324 258.800,181.865 253.030,178.807 249.161 C 175.349 244.787,177.211 239.607,182.242 239.602 L 184.684 239.600 187.923 242.749 M393.809 247.426 C 394.181 248.101,394.841 249.091,395.276 249.626 L 396.067 250.600 395.391 249.374 C 395.019 248.699,394.359 247.709,393.924 247.174 L 393.133 246.200 393.809 247.426 M5.846 248.600 C 5.491 249.150,4.909 250.095,4.553 250.700 L 3.905 251.800 4.710 250.826 C 5.660 249.676,6.921 247.600,6.669 247.600 C 6.571 247.600,6.201 248.050,5.846 248.600 M396.000 250.920 C 396.000 251.304,398.045 254.400,398.299 254.400 C 398.478 254.400,397.841 253.319,396.539 251.411 C 396.242 250.977,396.000 250.756,396.000 250.920 M2.704 253.682 C 0.316 257.810,0.252 258.528,2.622 254.592 C 3.387 253.321,3.942 252.209,3.855 252.122 C 3.768 252.035,3.250 252.737,2.704 253.682 M398.415 255.000 C 398.417 255.220,398.786 255.850,399.236 256.400 C 399.779 257.064,399.915 257.131,399.640 256.600 C 398.966 255.295,398.412 254.572,398.415 255.000 M83.400 353.570 C 82.655 353.742,83.566 353.850,85.800 353.856 C 88.592 353.864,89.041 353.796,87.800 353.556 C 85.922 353.192,85.033 353.195,83.400 353.570 M313.200 353.576 C 312.297 353.751,313.148 353.849,315.600 353.853 C 318.474 353.858,319.010 353.785,317.800 353.553 C 315.949 353.198,315.134 353.202,313.200 353.576 M304.581 358.100 L 303.000 359.800 304.700 358.219 C 305.635 357.349,306.400 356.584,306.400 356.519 C 306.400 356.216,306.052 356.519,304.581 358.100 M330.438 359.300 C 330.532 359.355,331.327 360.030,332.204 360.800 L 333.800 362.200 332.422 360.700 C 331.663 359.875,330.868 359.200,330.655 359.200 C 330.441 359.200,330.344 359.245,330.438 359.300 M68.558 360.900 C 67.331 362.229,65.897 364.122,66.663 363.400 C 67.517 362.595,70.088 359.600,69.925 359.600 C 69.833 359.600,69.217 360.185,68.558 360.900 M301.052 363.300 C 300.720 364.540,300.751 366.903,301.106 367.460 C 301.268 367.713,301.401 366.678,301.402 365.160 C 301.404 362.087,301.393 362.028,301.052 363.300 M100.114 365.400 C 100.117 366.500,100.195 366.903,100.287 366.295 C 100.379 365.686,100.377 364.786,100.282 364.295 C 100.187 363.803,100.111 364.300,100.114 365.400 M65.180 365.639 C 64.720 366.540,64.413 367.346,64.497 367.430 C 64.581 367.514,65.041 366.776,65.519 365.791 C 66.609 363.547,66.315 363.415,65.180 365.639 M337.068 369.400 C 337.371 371.377,337.602 371.714,337.594 370.167 C 337.591 369.525,337.416 368.730,337.205 368.400 C 336.945 367.991,336.901 368.310,337.068 369.400 M97.775 370.900 L 96.600 372.200 97.900 371.025 C 99.112 369.930,99.384 369.600,99.075 369.600 C 99.006 369.600,98.421 370.185,97.775 370.900 M303.943 371.500 C 304.708 372.215,305.618 372.799,305.967 372.798 C 306.315 372.796,306.060 372.514,305.400 372.171 C 304.740 371.828,303.830 371.244,303.377 370.873 C 302.924 370.503,303.179 370.785,303.943 371.500 M63.714 372.200 C 63.717 373.300,63.795 373.703,63.887 373.095 C 63.979 372.486,63.977 371.586,63.882 371.095 C 63.787 370.603,63.711 371.100,63.714 372.200 M337.259 373.800 C 337.220 374.460,337.096 375.450,336.983 376.000 L 336.777 377.000 337.208 376.014 C 337.444 375.472,337.568 374.482,337.483 373.814 L 337.328 372.600 337.259 373.800 M64.006 375.633 C 64.009 376.165,64.189 376.870,64.406 377.200 C 64.682 377.622,64.723 377.385,64.542 376.400 C 64.225 374.675,63.998 374.349,64.006 375.633 M91.095 375.884 C 90.947 376.591,90.152 377.941,89.328 378.884 C 87.921 380.495,87.910 380.526,89.150 379.400 C 90.697 377.996,91.707 376.225,91.506 375.273 C 91.424 374.881,91.252 375.135,91.095 375.884 M310.752 377.800 C 311.195 378.746,312.648 380.119,313.874 380.750 C 315.531 381.604,315.352 381.197,313.573 380.069 C 312.592 379.446,311.471 378.501,311.083 377.969 C 310.608 377.317,310.500 377.262,310.752 377.800 M64.802 378.409 C 64.799 379.193,67.004 381.872,68.131 382.454 C 68.609 382.701,68.327 382.294,67.505 381.551 C 66.683 380.808,65.739 379.660,65.408 379.000 C 65.076 378.340,64.804 378.074,64.802 378.409 M321.600 380.037 C 321.067 380.414,321.067 380.441,321.600 380.279 C 321.930 380.179,322.920 380.750,323.800 381.548 L 325.400 383.000 323.819 381.300 C 322.949 380.365,322.229 379.603,322.219 379.606 C 322.208 379.609,321.930 379.803,321.600 380.037 " stroke="none" fill="#806cff" fill-rule="evenodd"></path><path id="path4" d="M184.400 148.046 C 175.634 148.742,167.010 149.856,159.600 151.251 C 157.458 151.654,156.566 151.841,152.000 152.844 C 148.200 153.679,142.209 155.262,142.000 155.487 C 141.765 155.740,143.613 155.428,145.600 154.879 C 148.034 154.207,156.014 152.416,158.353 152.017 C 159.589 151.806,161.680 151.436,163.000 151.193 C 180.015 148.072,206.996 147.200,224.000 149.220 C 234.139 150.425,236.530 150.799,245.000 152.503 C 252.336 153.979,253.459 154.166,253.187 153.871 C 252.518 153.146,238.266 150.475,228.200 149.188 C 216.565 147.700,195.640 147.155,184.400 148.046 M254.000 154.400 C 254.330 154.613,255.050 154.778,255.600 154.766 C 256.516 154.746,256.533 154.715,255.800 154.400 C 254.616 153.891,253.213 153.891,254.000 154.400 M257.200 155.200 C 257.530 155.413,258.160 155.588,258.600 155.588 C 259.262 155.588,259.297 155.521,258.800 155.200 C 258.470 154.987,257.840 154.812,257.400 154.812 C 256.738 154.812,256.703 154.879,257.200 155.200 M139.800 156.000 L 139.000 156.344 139.800 156.366 C 140.240 156.378,140.870 156.213,141.200 156.000 C 141.995 155.486,140.996 155.486,139.800 156.000 M260.000 156.000 C 260.330 156.213,260.960 156.378,261.400 156.366 L 262.200 156.344 261.400 156.000 C 260.204 155.486,259.205 155.486,260.000 156.000 M132.664 158.199 C 129.839 159.156,127.424 160.043,127.297 160.170 C 126.933 160.533,128.336 160.438,129.105 160.047 C 130.900 159.134,136.758 157.200,137.729 157.200 C 138.072 157.200,138.464 157.020,138.600 156.800 C 139.003 156.148,138.070 156.368,132.664 158.199 M262.800 156.800 C 263.130 157.013,263.760 157.178,264.200 157.166 L 265.000 157.144 264.200 156.800 C 263.004 156.286,262.005 156.286,262.800 156.800 M265.400 157.600 C 265.536 157.820,266.042 157.997,266.524 157.994 C 267.236 157.989,267.288 157.915,266.800 157.600 C 266.012 157.091,265.085 157.091,265.400 157.600 M267.790 158.384 C 267.932 158.613,268.476 158.800,269.000 158.800 C 269.524 158.800,270.064 158.980,270.200 159.200 C 270.336 159.420,270.842 159.593,271.324 159.584 C 272.069 159.571,272.020 159.491,271.000 159.049 C 269.133 158.242,267.492 157.901,267.790 158.384 M272.600 160.000 C 272.736 160.220,273.109 160.400,273.429 160.400 C 273.749 160.400,274.368 160.580,274.805 160.800 C 275.242 161.020,275.958 161.380,276.395 161.600 C 276.832 161.820,277.374 162.000,277.599 162.000 C 277.824 162.000,278.862 162.378,279.904 162.840 C 280.947 163.302,282.160 163.819,282.600 163.989 C 286.386 165.454,305.178 174.778,306.000 175.600 C 306.396 175.996,308.615 177.254,309.300 177.471 C 309.685 177.593,310.000 177.852,310.000 178.047 C 310.000 178.241,310.185 178.400,310.412 178.400 C 310.979 178.400,321.486 185.439,324.600 187.905 C 324.820 188.079,325.630 188.658,326.400 189.192 C 327.170 189.725,327.890 190.269,328.000 190.400 C 328.110 190.531,328.830 191.076,329.600 191.611 C 330.370 192.145,331.382 192.947,331.850 193.391 C 332.317 193.836,333.040 194.470,333.455 194.800 C 345.088 204.036,360.822 220.309,370.005 232.600 C 370.991 233.920,371.897 235.090,372.018 235.200 C 372.139 235.310,372.671 236.030,373.200 236.800 C 373.729 237.570,374.269 238.290,374.400 238.400 C 374.531 238.510,375.071 239.230,375.600 240.000 C 376.129 240.770,376.669 241.490,376.800 241.600 C 377.341 242.054,385.644 254.936,387.627 258.400 C 387.942 258.950,388.290 259.490,388.401 259.600 C 388.511 259.710,388.871 260.340,389.200 261.000 C 389.529 261.660,389.889 262.290,389.999 262.400 C 390.371 262.770,391.619 264.988,392.306 266.500 C 392.682 267.325,393.137 268.000,393.318 268.000 C 394.222 268.000,384.292 251.520,377.918 242.442 C 355.638 210.712,327.697 185.780,297.000 170.237 C 290.338 166.864,284.555 164.180,281.000 162.812 C 280.560 162.643,279.300 162.136,278.200 161.685 C 273.378 159.708,272.200 159.353,272.600 160.000 M123.600 161.463 C 122.170 162.026,120.460 162.720,119.800 163.005 C 119.140 163.290,117.880 163.819,117.000 164.180 C 89.165 175.600,58.226 198.735,37.539 223.600 C 34.193 227.622,29.173 233.946,27.221 236.600 C 26.250 237.920,25.017 239.585,24.480 240.300 C 23.944 241.015,23.668 241.600,23.866 241.600 C 24.065 241.600,24.543 241.067,24.928 240.415 C 25.313 239.763,25.847 238.998,26.114 238.715 C 26.381 238.432,27.410 237.124,28.400 235.809 C 30.437 233.103,30.185 233.426,34.029 228.600 C 42.335 218.172,54.202 205.986,64.217 197.600 C 66.188 195.950,67.996 194.420,68.237 194.200 C 68.477 193.980,69.270 193.350,70.000 192.800 C 70.730 192.250,71.523 191.614,71.763 191.387 C 72.004 191.160,72.830 190.538,73.600 190.006 C 74.370 189.474,75.090 188.916,75.200 188.767 C 75.605 188.218,91.545 177.600,91.965 177.600 C 92.204 177.600,92.401 177.465,92.403 177.300 C 92.405 177.135,92.810 176.802,93.303 176.560 C 95.238 175.609,97.810 174.188,98.000 173.964 C 98.262 173.654,111.892 166.926,115.217 165.465 C 118.170 164.168,119.423 163.638,120.700 163.146 C 122.449 162.473,123.808 161.903,124.495 161.553 C 124.877 161.359,125.451 161.200,125.771 161.200 C 126.091 161.200,126.464 161.020,126.600 160.800 C 126.959 160.219,126.501 160.320,123.600 161.463 M163.121 215.215 C 160.516 216.560,156.018 218.087,152.800 218.719 C 149.235 219.419,145.382 220.000,144.304 220.000 C 143.147 220.000,140.400 222.326,140.400 223.305 C 140.400 223.661,140.220 224.064,140.000 224.200 C 139.780 224.336,139.600 224.876,139.600 225.400 C 139.600 225.924,139.780 226.464,140.000 226.600 C 140.220 226.736,140.400 227.127,140.400 227.470 C 140.400 227.812,141.075 228.712,141.900 229.469 L 143.400 230.846 147.200 230.666 C 149.290 230.567,151.990 230.277,153.200 230.022 C 154.410 229.768,156.076 229.459,156.903 229.337 C 157.729 229.215,158.505 228.955,158.626 228.758 C 158.748 228.561,159.289 228.400,159.829 228.400 C 160.369 228.400,161.123 228.233,161.505 228.029 C 161.887 227.825,162.541 227.551,162.957 227.420 C 163.374 227.289,163.624 227.090,163.513 226.979 C 163.402 226.868,162.809 226.968,162.196 227.201 C 154.203 230.241,144.574 231.127,142.167 229.046 C 138.890 226.213,140.827 220.400,145.048 220.400 C 147.866 220.400,152.509 219.487,157.800 217.893 C 160.671 217.028,167.078 214.008,166.000 214.028 C 165.670 214.034,164.374 214.568,163.121 215.215 M170.277 214.781 C 170.979 215.210,171.827 216.064,172.161 216.680 C 172.560 217.417,172.773 217.571,172.784 217.131 C 172.805 216.271,170.544 214.000,169.669 214.001 C 169.250 214.002,169.478 214.294,170.277 214.781 M230.087 214.624 C 227.291 216.583,227.503 222.781,230.400 223.762 C 230.730 223.873,231.770 224.423,232.711 224.982 C 233.652 225.542,234.642 225.997,234.911 225.993 C 235.180 225.989,234.500 225.484,233.400 224.871 C 230.210 223.093,229.731 222.730,229.047 221.571 C 227.716 219.319,228.573 216.215,230.919 214.784 C 231.624 214.354,231.925 214.002,231.589 214.001 C 231.253 214.001,230.577 214.281,230.087 214.624 M236.618 215.128 C 241.456 217.795,251.022 220.400,255.984 220.400 C 259.568 220.400,261.919 224.761,260.016 227.881 C 258.218 230.830,255.829 231.044,246.000 229.137 C 244.196 228.787,238.132 226.947,236.100 226.133 C 235.825 226.023,235.600 226.128,235.600 226.367 C 235.600 226.605,235.949 226.800,236.376 226.800 C 236.803 226.800,237.264 226.980,237.400 227.200 C 237.536 227.420,238.076 227.600,238.600 227.600 C 239.124 227.600,239.651 227.759,239.771 227.954 C 239.892 228.149,240.487 228.407,241.095 228.529 C 241.703 228.651,243.010 228.954,244.000 229.203 C 255.619 232.124,261.200 230.890,261.200 225.400 C 261.200 222.881,258.877 220.000,256.846 220.000 C 254.887 220.000,247.579 218.733,244.800 217.912 C 242.579 217.256,238.311 215.511,237.000 214.724 C 236.340 214.327,235.530 214.006,235.200 214.009 C 234.870 214.012,235.508 214.515,236.618 215.128 M171.856 221.770 C 171.467 222.364,170.315 223.379,169.296 224.025 C 168.277 224.671,167.671 225.200,167.950 225.200 C 169.230 225.200,173.001 222.004,172.720 221.159 C 172.634 220.901,172.245 221.177,171.856 221.770 M165.400 225.978 C 164.520 226.395,164.104 226.750,164.476 226.768 C 164.848 226.785,165.264 226.620,165.400 226.400 C 165.536 226.180,165.997 226.000,166.424 226.000 C 166.851 226.000,167.200 225.820,167.200 225.600 C 167.200 225.100,167.301 225.079,165.400 225.978 M178.500 241.065 C 177.785 241.868,177.201 242.812,177.201 243.163 C 177.202 243.532,177.524 243.273,177.967 242.547 C 180.169 238.935,183.379 238.946,187.135 242.577 C 191.376 246.678,192.856 247.612,197.569 249.158 C 200.329 250.065,207.528 250.351,209.840 249.647 C 210.478 249.452,211.810 249.059,212.800 248.772 C 215.151 248.090,218.931 246.398,218.675 246.142 C 218.565 246.031,217.873 246.252,217.138 246.632 C 207.176 251.784,195.639 250.250,187.923 242.749 L 184.684 239.600 182.242 239.602 C 179.937 239.604,179.727 239.686,178.500 241.065 M21.279 244.900 C 17.176 250.717,6.400 268.514,6.400 269.472 C 6.400 270.059,7.247 268.919,8.158 267.108 C 8.741 265.948,9.762 264.100,10.426 263.000 C 11.091 261.900,11.738 260.685,11.864 260.300 C 11.990 259.915,12.252 259.600,12.447 259.600 C 12.641 259.600,12.800 259.416,12.800 259.191 C 12.800 258.966,13.700 257.422,14.800 255.761 C 15.900 254.100,16.800 252.663,16.800 252.567 C 16.800 252.277,22.150 244.259,22.900 243.427 C 23.532 242.724,23.818 242.000,23.462 242.000 C 23.386 242.000,22.404 243.305,21.279 244.900 M219.400 245.600 C 219.249 245.845,219.870 246.000,221.000 246.000 C 222.130 246.000,222.751 245.845,222.600 245.600 C 222.464 245.380,221.744 245.200,221.000 245.200 C 220.256 245.200,219.536 245.380,219.400 245.600 M177.217 246.464 C 177.146 249.252,189.314 258.800,192.937 258.800 C 193.276 258.800,193.664 258.980,193.800 259.200 C 193.936 259.420,194.532 259.587,195.124 259.570 C 195.890 259.549,195.452 259.278,193.600 258.629 C 186.907 256.283,180.195 251.339,177.917 247.078 C 177.510 246.316,177.227 246.068,177.217 246.464 M224.445 247.124 C 225.466 248.036,225.740 248.636,225.902 250.316 C 226.011 251.454,226.258 252.288,226.450 252.169 C 226.932 251.872,226.892 249.704,226.400 249.400 C 226.180 249.264,226.000 248.885,226.000 248.558 C 226.000 247.877,224.248 246.000,223.612 246.000 C 223.378 246.000,223.753 246.506,224.445 247.124 M225.078 253.842 C 224.680 254.374,223.330 255.339,222.078 255.986 C 219.345 257.396,219.812 257.609,222.625 256.236 C 224.592 255.275,226.157 253.837,225.923 253.206 C 225.855 253.023,225.475 253.310,225.078 253.842 M214.600 258.800 C 212.591 259.415,212.408 259.540,213.476 259.567 C 214.178 259.585,214.864 259.420,215.000 259.200 C 215.136 258.980,215.676 258.800,216.200 258.800 C 216.724 258.800,217.264 258.620,217.400 258.400 C 217.719 257.884,217.481 257.918,214.600 258.800 M196.589 259.982 C 196.731 260.212,197.767 260.400,198.890 260.400 C 201.420 260.400,201.264 260.193,198.465 259.836 C 197.018 259.651,196.413 259.698,196.589 259.982 M209.200 260.000 L 207.400 260.280 209.476 260.340 C 210.618 260.373,211.664 260.220,211.800 260.000 C 212.065 259.572,211.955 259.572,209.200 260.000 M202.691 260.689 C 203.401 260.777,204.661 260.779,205.491 260.692 C 206.321 260.605,205.740 260.533,204.200 260.531 C 202.660 260.529,201.981 260.600,202.691 260.689 M393.600 268.487 C 393.600 268.623,394.216 269.896,394.970 271.316 C 395.723 272.736,397.085 275.379,397.995 277.190 C 398.906 279.001,399.727 280.406,399.820 280.313 C 399.913 280.220,398.710 277.636,397.146 274.572 C 394.525 269.437,393.600 267.849,393.600 268.487 M5.562 270.866 C 2.224 277.061,-0.378 282.541,0.378 281.780 C 0.906 281.248,6.384 270.251,6.209 270.075 C 6.129 269.996,5.838 270.352,5.562 270.866 M45.400 294.800 C 45.252 295.040,45.763 295.201,46.676 295.201 C 49.839 295.205,50.900 296.440,52.620 302.124 C 53.206 304.062,53.770 305.563,53.873 305.461 C 54.137 305.196,51.959 297.977,51.299 296.932 C 50.289 295.335,46.023 293.793,45.400 294.800 M352.528 295.022 C 350.427 295.943,346.618 303.551,347.711 304.644 C 347.849 304.782,348.080 304.378,348.224 303.747 C 348.634 301.965,349.595 299.134,350.283 297.682 C 351.936 294.197,357.734 294.512,359.212 298.167 C 359.487 298.846,359.554 298.871,359.575 298.303 C 359.665 295.824,355.318 293.800,352.528 295.022 M43.000 296.149 C 41.251 298.116,40.492 301.515,41.643 302.226 C 41.951 302.417,42.002 302.119,41.811 301.251 C 41.436 299.544,42.211 297.430,43.657 296.213 C 44.320 295.656,44.623 295.211,44.331 295.224 C 44.039 295.238,43.440 295.654,43.000 296.149 M359.062 302.547 C 358.897 303.178,358.856 303.789,358.971 303.904 C 359.293 304.227,359.687 302.938,359.515 302.123 C 359.403 301.590,359.284 301.701,359.062 302.547 M42.031 303.676 C 42.014 304.268,42.180 304.864,42.400 305.000 C 42.620 305.136,42.800 305.676,42.800 306.200 C 42.800 306.724,42.980 307.264,43.200 307.400 C 43.770 307.752,43.648 306.899,42.800 304.600 C 42.205 302.987,42.056 302.809,42.031 303.676 M358.262 305.347 C 358.097 305.978,358.056 306.589,358.171 306.704 C 358.493 307.027,358.887 305.738,358.715 304.923 C 358.603 304.390,358.484 304.501,358.262 305.347 M346.972 305.843 C 346.836 306.259,346.538 307.101,346.309 307.713 C 346.080 308.325,345.981 308.914,346.088 309.022 C 346.196 309.130,346.600 308.393,346.985 307.385 C 347.370 306.376,347.580 305.447,347.452 305.318 C 347.324 305.190,347.108 305.426,346.972 305.843 M54.012 306.400 C 54.012 306.730,54.187 307.270,54.400 307.600 C 54.745 308.133,54.788 308.133,54.788 307.600 C 54.788 307.270,54.613 306.730,54.400 306.400 C 54.055 305.867,54.012 305.867,54.012 306.400 M357.488 307.733 C 357.042 308.866,357.115 309.445,357.638 308.922 C 357.878 308.682,358.008 308.151,357.926 307.742 C 357.782 307.026,357.766 307.026,357.488 307.733 M43.623 308.481 C 43.610 308.856,43.802 309.666,44.050 310.281 C 44.863 312.303,45.124 312.990,45.373 313.757 C 45.508 314.174,45.709 314.424,45.819 314.314 C 45.930 314.204,45.486 312.693,44.833 310.957 C 44.180 309.221,43.635 308.107,43.623 308.481 M54.800 308.554 C 54.800 309.108,56.929 314.404,57.089 314.245 C 57.305 314.028,56.384 311.176,55.918 310.620 C 55.743 310.411,55.600 309.927,55.600 309.544 C 55.600 309.161,55.420 308.736,55.200 308.600 C 54.980 308.464,54.800 308.443,54.800 308.554 M356.688 310.133 C 356.242 311.266,356.315 311.845,356.838 311.322 C 357.078 311.082,357.208 310.551,357.126 310.142 C 356.982 309.426,356.966 309.426,356.688 310.133 M355.415 313.815 C 355.030 314.824,354.820 315.753,354.948 315.882 C 355.076 316.010,355.292 315.774,355.428 315.357 C 355.564 314.941,355.862 314.099,356.091 313.487 C 356.320 312.875,356.419 312.286,356.312 312.178 C 356.204 312.070,355.800 312.807,355.415 313.815 M46.000 315.405 C 46.000 315.738,46.159 316.323,46.353 316.705 C 46.548 317.087,46.889 317.850,47.111 318.400 C 50.388 326.501,53.358 332.802,57.200 339.800 C 57.924 341.120,58.716 342.604,58.959 343.097 C 59.201 343.590,59.535 343.995,59.700 343.997 C 59.865 343.999,60.000 344.174,60.000 344.388 C 60.000 344.601,60.810 346.027,61.800 347.558 C 64.024 350.996,64.132 350.410,60.586 354.149 C 58.944 355.880,57.600 357.545,57.600 357.849 C 57.600 358.152,57.458 358.400,57.284 358.400 C 56.867 358.400,55.003 362.120,54.277 364.400 C 52.569 369.763,52.577 373.670,54.308 380.400 C 54.722 382.009,54.559 382.800,53.811 382.800 C 52.946 382.800,45.140 386.141,42.316 387.720 C 36.183 391.150,33.453 394.359,33.677 397.874 L 33.800 399.800 200.176 399.900 C 333.013 399.981,366.616 399.900,366.870 399.500 C 369.649 395.124,360.187 386.908,347.982 383.099 C 346.474 382.628,345.855 381.584,346.756 381.027 C 347.725 380.428,348.369 368.862,347.582 366.200 C 346.744 363.368,344.664 358.732,343.857 357.898 C 343.591 357.624,342.937 356.770,342.404 356.000 C 341.870 355.230,340.571 353.781,339.517 352.780 C 337.209 350.588,337.229 350.935,339.248 347.977 C 340.154 346.649,340.809 345.476,340.703 345.369 C 340.423 345.090,337.200 350.142,337.200 350.861 C 337.200 351.194,337.898 352.027,338.750 352.712 C 345.187 357.885,349.437 370.252,347.247 377.440 C 347.052 378.078,346.663 379.410,346.381 380.400 C 343.548 390.349,332.668 396.217,323.400 392.794 C 321.998 392.276,319.420 391.780,317.200 391.601 C 310.374 391.049,305.847 388.660,302.618 383.902 C 301.867 382.796,300.344 381.365,298.965 380.473 C 286.190 372.202,289.034 353.464,304.200 345.985 C 305.960 345.118,307.103 344.406,306.741 344.404 C 303.545 344.385,292.800 353.610,292.800 356.372 C 292.800 356.607,292.620 356.800,292.400 356.800 C 292.180 356.800,292.000 357.149,292.000 357.576 C 292.000 358.003,291.820 358.464,291.600 358.600 C 291.380 358.736,291.200 359.251,291.200 359.744 C 291.200 360.237,291.008 360.832,290.772 361.068 C 290.298 361.542,290.423 368.986,290.922 370.016 C 291.246 370.683,290.712 370.658,282.200 369.611 C 258.326 366.675,231.468 365.249,200.000 365.247 C 169.148 365.245,143.417 366.621,118.600 369.601 C 110.189 370.610,110.490 370.612,110.289 369.552 C 110.111 368.610,110.108 368.610,110.054 369.509 C 109.863 372.700,106.101 377.993,102.169 380.603 C 100.985 381.389,99.478 382.815,98.819 383.773 C 95.456 388.660,89.840 391.600,83.865 391.600 C 81.779 391.600,80.397 391.866,78.459 392.642 C 68.971 396.437,57.370 390.314,54.731 380.118 C 52.046 369.742,54.410 360.799,61.741 353.600 C 64.415 350.974,64.436 350.799,62.442 347.713 C 58.921 342.266,50.000 325.415,50.000 324.212 C 50.000 324.090,49.658 323.228,49.240 322.296 C 48.822 321.363,47.983 319.295,47.377 317.700 C 46.255 314.750,46.000 314.326,46.000 315.405 M57.230 315.100 C 57.290 315.711,58.742 318.584,58.770 318.149 C 58.807 317.590,57.661 314.800,57.395 314.800 C 57.288 314.800,57.213 314.935,57.230 315.100 M354.267 316.667 C 354.120 316.813,354.000 317.169,354.000 317.457 C 354.000 317.744,353.460 319.159,352.800 320.600 C 352.140 322.041,351.600 323.301,351.600 323.400 C 351.600 323.606,349.709 327.774,347.879 331.600 C 347.196 333.030,345.533 336.180,344.184 338.600 C 340.741 344.779,340.731 344.800,341.139 344.800 C 341.341 344.800,341.610 344.485,341.736 344.100 C 341.862 343.715,342.451 342.590,343.045 341.600 C 348.222 332.969,356.618 314.315,354.267 316.667 M342.000 318.605 C 342.000 318.938,341.838 319.523,341.640 319.905 C 341.443 320.287,339.825 323.570,338.045 327.200 C 334.987 333.437,329.244 343.578,328.119 344.727 C 327.693 345.162,327.199 345.110,325.275 344.427 C 323.995 343.972,322.509 343.610,321.973 343.621 C 321.438 343.633,322.440 344.075,324.200 344.603 C 325.960 345.131,327.670 345.479,328.000 345.377 C 328.624 345.184,331.478 340.662,335.181 334.000 C 339.116 326.921,343.141 318.000,342.400 318.000 C 342.180 318.000,342.000 318.272,342.000 318.605 M58.804 319.100 C 58.831 321.414,72.517 345.613,73.777 345.575 C 74.557 345.551,74.553 345.530,73.700 345.188 C 73.205 344.989,72.800 344.565,72.800 344.246 C 72.800 343.927,72.665 343.607,72.500 343.533 C 71.791 343.218,66.735 334.330,63.095 327.000 C 59.728 320.221,59.600 319.941,59.600 319.362 C 59.600 319.053,59.420 318.800,59.200 318.800 C 58.980 318.800,58.802 318.935,58.804 319.100 M81.457 343.108 C 81.352 343.277,83.310 343.415,85.808 343.415 C 88.305 343.415,90.135 343.280,89.874 343.114 C 89.249 342.716,81.702 342.711,81.457 343.108 M311.308 343.125 C 311.038 343.296,312.969 343.437,315.600 343.437 C 318.231 343.437,320.162 343.296,319.892 343.125 C 319.621 342.953,317.690 342.812,315.600 342.812 C 313.510 342.812,311.579 342.953,311.308 343.125 M77.400 344.000 C 77.116 344.460,77.764 344.460,79.200 344.000 C 80.155 343.694,80.143 343.678,78.924 343.640 C 78.222 343.618,77.536 343.780,77.400 344.000 M93.200 344.350 C 94.410 344.739,95.820 345.284,96.334 345.561 C 96.848 345.838,97.358 345.976,97.467 345.867 C 97.650 345.683,96.722 345.214,93.881 344.056 C 93.266 343.805,92.366 343.610,91.881 343.622 C 91.397 343.633,91.990 343.961,93.200 344.350 M307.800 344.000 C 307.505 344.478,308.289 344.478,309.400 344.000 C 310.114 343.693,310.085 343.653,309.124 343.628 C 308.532 343.613,307.936 343.780,307.800 344.000 M75.000 344.800 C 74.708 345.273,75.099 345.273,76.200 344.800 C 76.971 344.469,76.969 344.455,76.124 344.428 C 75.642 344.413,75.136 344.580,75.000 344.800 M98.000 346.158 C 98.000 346.245,98.906 346.898,100.014 347.609 C 105.927 351.403,110.011 358.101,110.320 364.511 C 110.506 368.375,111.181 369.298,111.194 365.706 C 111.217 359.418,107.401 352.618,101.261 348.006 C 98.844 346.191,98.000 345.713,98.000 346.158 " stroke="none" fill="#633df8" fill-rule="evenodd"></path></g></svg>