<svg id="svg" version="1.1" xmlns="http://www.w3.org/2000/svg" xmlns:xlink="http://www.w3.org/1999/xlink" width="400" height="400" viewBox="0, 0, 400,400"><g id="svgg"><path id="path0" d="M99.900 51.489 C 100.615 51.578,101.785 51.578,102.500 51.489 C 103.215 51.401,102.630 51.328,101.200 51.328 C 99.770 51.328,99.185 51.401,99.900 51.489 M94.056 52.059 C 93.317 52.272,92.803 52.536,92.914 52.647 C 93.025 52.758,93.990 52.580,95.058 52.252 C 97.169 51.604,96.253 51.427,94.056 52.059 M107.560 52.233 C 108.747 52.553,109.799 52.734,109.897 52.636 C 110.136 52.397,107.206 51.598,106.200 51.629 C 105.760 51.642,106.372 51.914,107.560 52.233 M90.328 53.192 C 89.129 53.554,87.194 54.800,87.831 54.800 C 88.056 54.800,88.421 54.619,88.643 54.397 C 88.865 54.175,89.846 53.743,90.823 53.436 C 91.800 53.130,92.330 52.877,92.000 52.874 C 91.670 52.871,90.917 53.014,90.328 53.192 M111.000 53.200 C 111.440 53.389,112.070 53.544,112.400 53.544 C 112.778 53.544,112.704 53.417,112.200 53.200 C 111.760 53.011,111.130 52.856,110.800 52.856 C 110.422 52.856,110.496 52.983,111.000 53.200 M116.200 55.417 C 116.860 55.738,118.300 56.543,119.400 57.205 C 121.635 58.550,120.771 57.800,118.000 55.990 C 117.010 55.344,115.930 54.818,115.600 54.823 C 115.270 54.828,115.540 55.095,116.200 55.417 M81.800 58.000 C 80.969 58.660,80.457 59.200,80.660 59.200 C 81.075 59.200,83.939 56.842,83.555 56.816 C 83.420 56.807,82.631 57.340,81.800 58.000 M123.400 59.527 C 123.840 59.961,124.650 60.448,125.200 60.608 C 126.424 60.965,126.256 60.802,124.200 59.641 C 122.788 58.843,122.694 58.830,123.400 59.527 M76.608 63.410 C 75.512 64.809,74.544 66.189,74.457 66.477 C 74.370 66.764,74.884 66.190,75.600 65.200 C 76.316 64.210,77.361 62.907,77.922 62.304 C 78.483 61.701,78.865 61.131,78.771 61.037 C 78.677 60.943,77.703 62.011,76.608 63.410 M126.400 61.151 C 126.400 61.533,128.328 62.605,128.574 62.360 C 128.670 62.264,128.220 61.882,127.574 61.511 C 126.928 61.140,126.400 60.978,126.400 61.151 M130.833 63.728 C 131.469 64.215,134.000 65.536,134.000 65.381 C 134.000 65.113,131.482 63.603,131.033 63.601 C 130.832 63.601,130.742 63.657,130.833 63.728 M134.800 66.021 C 135.860 66.742,137.600 67.626,137.600 67.443 C 137.600 67.185,134.969 65.599,134.553 65.606 C 134.359 65.609,134.470 65.796,134.800 66.021 M73.600 67.800 C 73.317 68.141,73.176 68.509,73.286 68.619 C 73.396 68.729,73.717 68.541,74.000 68.200 C 74.283 67.859,74.424 67.491,74.314 67.381 C 74.204 67.271,73.883 67.459,73.600 67.800 M138.767 68.113 C 139.071 68.505,140.193 69.244,141.261 69.755 C 142.328 70.266,143.015 70.460,142.788 70.185 C 142.560 69.911,141.794 69.457,141.087 69.177 C 140.379 68.897,139.443 68.383,139.007 68.034 C 138.263 67.440,138.248 67.445,138.767 68.113 M72.069 71.513 C 71.131 73.434,71.102 73.834,71.998 72.506 C 72.478 71.795,72.810 71.035,72.735 70.819 C 72.661 70.603,72.361 70.915,72.069 71.513 M143.633 70.948 C 144.182 71.437,149.595 74.315,149.413 74.022 C 149.162 73.616,144.229 70.800,143.768 70.800 C 143.602 70.800,143.542 70.867,143.633 70.948 M151.889 75.630 C 152.378 76.139,152.878 76.455,153.001 76.332 C 153.124 76.209,152.724 75.792,152.112 75.406 L 151.000 74.704 151.889 75.630 M70.657 77.659 C 70.323 80.858,70.407 320.251,70.743 323.400 C 70.885 324.720,71.000 269.415,71.000 200.500 C 71.000 131.585,70.981 75.200,70.957 75.200 C 70.933 75.200,70.798 76.306,70.657 77.659 M154.800 77.400 C 155.545 77.950,156.326 78.400,156.534 78.400 C 156.741 78.400,156.249 77.950,155.438 77.400 C 154.628 76.850,153.847 76.400,153.705 76.400 C 153.562 76.400,154.055 76.850,154.800 77.400 M158.400 79.400 C 159.145 79.950,159.968 80.400,160.229 80.400 C 160.489 80.400,160.926 80.670,161.200 81.000 C 161.774 81.692,162.584 81.821,162.172 81.155 C 162.021 80.910,161.117 80.365,160.165 79.943 C 159.212 79.522,158.325 79.002,158.193 78.789 C 158.061 78.575,157.748 78.400,157.499 78.400 C 157.249 78.400,157.655 78.850,158.400 79.400 M164.000 82.600 C 164.745 83.150,165.542 83.600,165.771 83.600 C 165.999 83.600,165.523 83.150,164.714 82.600 C 163.905 82.050,163.108 81.600,162.944 81.600 C 162.779 81.600,163.255 82.050,164.000 82.600 M166.400 83.767 C 166.400 83.999,169.023 85.600,169.403 85.600 C 169.573 85.600,169.049 85.150,168.238 84.600 C 166.784 83.613,166.400 83.439,166.400 83.767 M170.262 86.101 C 170.395 86.315,171.283 86.835,172.235 87.257 C 173.188 87.678,174.075 88.198,174.207 88.411 C 174.339 88.625,174.641 88.800,174.878 88.800 C 175.114 88.800,174.879 88.473,174.354 88.073 C 173.100 87.118,169.953 85.601,170.262 86.101 M175.600 88.954 C 175.600 89.039,176.095 89.427,176.700 89.816 L 177.800 90.524 177.038 89.662 C 176.364 88.899,175.600 88.523,175.600 88.954 M179.729 91.518 C 180.131 91.963,180.891 92.436,181.419 92.569 C 181.947 92.702,183.020 93.245,183.803 93.776 C 184.586 94.307,185.445 94.831,185.713 94.941 C 187.717 95.758,182.813 95.952,156.625 96.092 C 128.601 96.242,128.164 96.257,125.648 97.122 C 124.244 97.605,122.873 98.000,122.601 98.000 C 122.328 98.000,120.533 98.803,118.610 99.784 C 107.022 105.697,99.656 115.435,97.420 127.800 C 96.395 133.469,96.658 204.792,97.715 207.897 C 99.609 213.458,104.611 216.346,113.182 216.827 C 116.382 217.006,121.430 217.423,124.400 217.752 C 127.370 218.082,132.500 218.468,135.800 218.611 C 139.100 218.753,143.960 219.122,146.600 219.430 C 149.240 219.739,155.000 220.179,159.400 220.409 C 163.800 220.638,168.660 220.991,170.200 221.192 C 171.740 221.394,176.150 221.759,180.000 222.004 C 183.850 222.249,188.980 222.625,191.400 222.841 C 193.820 223.056,198.680 223.402,202.200 223.610 C 205.720 223.818,210.580 224.181,213.000 224.416 C 219.790 225.076,219.780 225.075,227.000 225.547 C 241.159 226.472,240.526 225.727,240.329 241.217 C 240.139 256.287,240.796 255.945,216.200 253.766 C 212.680 253.455,204.680 252.931,198.423 252.604 C 192.165 252.276,185.595 251.821,183.823 251.592 C 182.050 251.363,177.944 251.036,174.698 250.864 C 166.017 250.407,165.080 249.543,164.860 241.803 C 164.663 234.890,165.143 235.232,154.711 234.550 C 150.250 234.258,145.250 233.852,143.600 233.647 C 141.950 233.442,137.810 233.154,134.400 233.009 C 130.990 232.863,126.130 232.500,123.600 232.203 C 121.070 231.906,116.750 231.551,114.000 231.415 C 111.250 231.279,107.056 230.991,104.680 230.775 C 99.820 230.332,98.111 230.761,97.255 232.638 C 96.503 234.289,96.635 269.400,97.411 274.100 C 99.487 286.668,108.952 298.004,121.224 302.620 C 127.377 304.934,131.531 305.219,158.400 305.172 C 172.150 305.149,183.625 305.145,183.900 305.165 C 185.051 305.246,184.361 306.803,182.827 307.586 C 181.962 308.027,181.150 308.557,181.023 308.764 C 180.895 308.970,180.268 309.253,179.629 309.394 C 178.990 309.534,178.378 309.880,178.270 310.163 C 178.008 310.844,180.570 309.485,187.400 305.322 C 187.840 305.054,188.650 304.634,189.199 304.389 C 189.749 304.145,190.469 303.708,190.799 303.419 C 191.130 303.131,191.850 302.763,192.400 302.601 C 192.950 302.440,193.760 301.998,194.200 301.618 C 195.142 300.806,200.310 297.847,204.000 296.007 C 205.430 295.294,206.870 294.479,207.200 294.196 C 207.840 293.648,219.539 286.993,223.184 285.104 C 224.385 284.482,225.659 283.709,226.015 283.386 C 226.372 283.064,226.778 282.800,226.918 282.800 C 227.125 282.800,229.900 281.268,235.600 278.008 C 242.717 273.936,244.735 272.811,247.591 271.321 C 249.456 270.349,251.077 269.399,251.194 269.210 C 251.311 269.021,252.665 268.205,254.203 267.398 C 258.126 265.338,259.124 264.780,261.400 263.367 C 262.500 262.685,265.380 261.083,267.800 259.809 C 270.220 258.534,272.427 257.312,272.705 257.093 C 272.982 256.873,273.749 256.403,274.409 256.047 C 277.292 254.492,284.553 250.272,285.796 249.428 C 286.545 248.921,288.741 247.735,290.678 246.793 C 292.615 245.851,294.920 244.592,295.800 243.995 C 296.680 243.397,298.750 242.215,300.400 241.368 C 302.050 240.521,303.909 239.417,304.531 238.914 C 305.153 238.411,305.896 238.000,306.182 238.000 C 306.468 238.000,306.930 237.726,307.208 237.391 C 307.628 236.885,307.607 236.822,307.087 237.022 C 305.703 237.553,305.600 236.043,305.587 214.926 C 305.574 191.779,305.745 193.287,302.644 188.999 C 300.340 185.811,295.114 183.603,289.858 183.596 C 286.946 183.592,282.556 183.274,270.800 182.217 C 267.170 181.890,261.230 181.436,257.600 181.207 C 249.454 180.694,237.265 179.776,228.000 178.976 C 224.150 178.644,216.725 178.119,211.500 177.809 C 206.274 177.500,201.826 177.140,201.615 177.009 C 201.404 176.879,197.579 176.590,193.116 176.367 C 188.652 176.144,183.560 175.791,181.800 175.582 C 180.040 175.374,175.836 174.991,172.458 174.733 C 162.483 173.971,162.447 173.917,162.419 160.084 C 162.388 144.522,161.373 145.222,181.749 146.762 C 187.497 147.197,194.450 147.660,197.200 147.791 C 199.950 147.923,203.910 148.197,206.000 148.401 C 208.090 148.605,213.400 148.968,217.800 149.207 C 237.362 150.273,237.699 150.450,237.903 159.775 C 238.056 166.806,237.781 166.588,247.000 167.015 C 249.860 167.148,253.730 167.412,255.600 167.601 C 257.470 167.791,261.880 168.144,265.400 168.387 C 268.920 168.629,275.040 169.103,279.000 169.439 C 289.525 170.333,300.279 170.968,302.900 170.850 C 304.769 170.765,305.600 169.534,305.600 166.849 C 305.600 163.754,306.218 163.175,308.210 164.406 C 308.998 164.893,309.724 165.210,309.823 165.110 C 309.923 165.011,309.103 164.439,308.002 163.840 C 306.901 163.240,305.964 162.716,305.921 162.675 C 305.877 162.634,305.732 154.680,305.598 145.000 C 305.349 126.964,304.980 122.972,303.260 119.735 C 303.045 119.331,302.406 117.997,301.840 116.772 C 300.810 114.540,300.199 113.631,296.748 109.198 C 292.855 104.196,284.183 98.524,278.948 97.557 C 277.659 97.318,276.243 96.915,275.802 96.662 C 275.215 96.324,263.214 96.146,231.085 96.000 C 199.408 95.856,187.091 95.676,186.885 95.354 C 186.728 95.108,185.880 94.520,185.000 94.046 C 184.120 93.572,182.410 92.627,181.200 91.946 C 179.533 91.008,179.177 90.904,179.729 91.518 M311.253 165.956 C 311.781 166.371,312.840 167.011,313.607 167.377 C 315.475 168.270,317.435 169.377,318.295 170.025 C 318.946 170.516,318.952 170.503,318.369 169.862 C 317.708 169.133,316.120 168.184,313.344 166.858 C 312.433 166.422,311.568 165.871,311.420 165.633 C 311.273 165.395,310.959 165.200,310.722 165.200 C 310.486 165.200,310.724 165.540,311.253 165.956 M321.144 171.577 C 321.664 172.030,322.294 172.397,322.544 172.394 C 323.022 172.387,322.357 171.858,321.000 171.164 C 320.371 170.842,320.402 170.931,321.144 171.577 M323.200 172.555 C 323.200 172.831,326.021 174.512,326.194 174.339 C 326.278 174.255,325.638 173.780,324.773 173.282 C 323.908 172.784,323.200 172.457,323.200 172.555 M326.800 174.606 C 326.800 174.879,329.302 176.397,329.756 176.399 C 329.952 176.399,329.449 175.950,328.638 175.400 C 327.142 174.384,326.800 174.237,326.800 174.606 M333.391 178.620 C 334.218 179.181,334.972 179.561,335.068 179.465 C 335.261 179.272,332.687 177.600,332.197 177.600 C 332.027 177.600,332.565 178.059,333.391 178.620 M336.800 180.600 C 337.545 181.150,338.255 181.599,338.378 181.598 C 338.755 181.595,336.224 179.630,335.822 179.614 C 335.615 179.606,336.055 180.050,336.800 180.600 M340.800 183.699 C 342.901 185.892,343.200 186.163,343.200 185.872 C 343.200 185.643,341.026 183.425,339.798 182.401 C 339.139 181.852,339.590 182.435,340.800 183.699 M343.202 186.422 C 343.201 186.545,343.650 187.255,344.200 188.000 C 344.750 188.745,345.194 189.185,345.186 188.978 C 345.170 188.576,343.205 186.045,343.202 186.422 M345.203 189.615 C 345.201 189.734,345.560 190.537,346.000 191.400 C 346.440 192.263,346.799 192.706,346.797 192.385 C 346.796 192.063,346.437 191.260,346.000 190.600 C 345.563 189.940,345.204 189.497,345.203 189.615 M347.108 195.200 C 347.269 196.410,347.395 199.163,347.388 201.318 C 347.382 203.473,347.504 204.913,347.660 204.518 C 348.155 203.265,347.988 197.484,347.391 195.200 L 346.817 193.000 347.108 195.200 M346.640 207.237 C 346.494 208.153,346.110 209.279,345.787 209.740 C 345.464 210.201,345.201 210.763,345.203 210.989 C 345.204 211.215,345.554 210.871,345.980 210.224 C 346.734 209.081,347.468 206.135,347.093 205.760 C 346.990 205.657,346.787 206.322,346.640 207.237 M344.000 213.288 C 343.450 214.174,341.650 216.172,340.000 217.728 C 337.983 219.631,337.654 220.041,338.996 218.979 C 341.709 216.832,345.633 212.289,345.165 211.837 C 345.074 211.749,344.550 212.402,344.000 213.288 M334.841 221.434 C 334.093 221.965,333.653 222.400,333.863 222.400 C 334.073 222.400,334.855 221.950,335.600 221.400 C 337.335 220.120,336.647 220.151,334.841 221.434 M331.000 223.627 C 329.655 224.489,329.839 224.638,331.381 223.936 C 331.942 223.680,332.400 223.320,332.400 223.136 C 332.400 222.718,332.443 222.703,331.000 223.627 M326.400 226.190 C 325.850 226.508,324.950 226.999,324.400 227.280 C 323.041 227.976,320.626 229.600,320.950 229.600 C 321.094 229.600,322.210 229.015,323.429 228.300 C 324.648 227.585,326.220 226.694,326.923 226.319 C 327.625 225.945,328.020 225.632,327.800 225.625 C 327.580 225.618,326.950 225.872,326.400 226.190 M319.600 229.951 C 319.600 230.145,319.065 230.525,318.410 230.796 C 317.271 231.268,315.215 232.800,315.721 232.800 C 315.977 232.800,318.434 231.254,319.800 230.233 C 320.243 229.902,320.377 229.628,320.100 229.618 C 319.825 229.608,319.600 229.758,319.600 229.951 M313.362 233.662 L 312.600 234.524 313.800 233.783 C 315.434 232.774,315.409 232.800,314.729 232.800 C 314.396 232.800,313.781 233.188,313.362 233.662 M310.483 235.257 C 309.759 235.720,309.243 236.176,309.336 236.270 C 309.430 236.363,310.182 235.981,311.009 235.420 C 312.812 234.196,312.359 234.055,310.483 235.257 M175.144 312.023 C 174.402 312.669,174.371 312.758,175.000 312.436 C 176.357 311.742,177.022 311.213,176.544 311.206 C 176.294 311.203,175.664 311.570,175.144 312.023 M171.641 313.834 C 170.893 314.365,170.464 314.800,170.687 314.800 C 170.910 314.800,171.521 314.467,172.046 314.060 C 172.571 313.653,173.270 313.217,173.600 313.091 C 174.133 312.889,174.133 312.863,173.600 312.866 C 173.270 312.867,172.388 313.303,171.641 313.834 M169.014 315.177 C 168.886 315.385,167.390 316.320,165.690 317.256 C 162.863 318.812,161.174 320.000,161.788 320.000 C 161.922 320.000,162.520 319.678,163.116 319.284 C 163.712 318.890,164.560 318.358,165.000 318.102 C 165.440 317.846,166.745 317.086,167.900 316.415 C 169.055 315.743,170.000 315.105,170.000 314.997 C 170.000 314.650,169.256 314.787,169.014 315.177 M159.544 320.824 L 158.600 321.647 159.800 320.945 C 161.379 320.020,161.403 320.000,160.911 320.000 C 160.679 320.000,160.064 320.371,159.544 320.824 M155.200 323.203 C 153.770 324.061,152.060 325.051,151.400 325.403 C 147.774 327.337,145.572 328.800,146.287 328.800 C 146.543 328.800,146.861 328.625,146.993 328.411 C 147.125 328.198,147.991 327.660,148.917 327.216 C 149.842 326.772,151.320 325.953,152.200 325.395 C 153.080 324.838,154.250 324.163,154.800 323.895 C 156.196 323.215,158.586 321.595,158.156 321.622 C 157.960 321.634,156.630 322.345,155.200 323.203 M71.600 328.131 C 71.600 328.229,71.869 328.824,72.198 329.454 C 72.526 330.084,72.799 330.870,72.805 331.200 C 72.810 331.530,73.351 332.592,74.007 333.560 C 74.663 334.528,75.200 335.138,75.200 334.916 C 75.200 334.694,74.789 333.902,74.288 333.156 C 73.786 332.410,73.151 331.043,72.877 330.117 C 72.473 328.754,71.600 327.396,71.600 328.131 M143.611 329.820 C 142.847 330.359,142.408 330.800,142.634 330.800 C 142.860 330.800,143.655 330.350,144.400 329.800 C 146.148 328.510,145.441 328.528,143.611 329.820 M140.980 331.233 C 140.832 331.471,139.964 331.987,139.050 332.378 C 138.136 332.770,137.121 333.425,136.794 333.835 C 136.341 334.403,136.473 334.368,137.354 333.689 C 137.989 333.200,138.719 332.800,138.976 332.800 C 139.234 332.800,140.055 332.350,140.800 331.800 C 141.545 331.250,141.951 330.800,141.701 330.800 C 141.452 330.800,141.127 330.995,140.980 331.233 M133.800 335.410 C 132.920 335.952,132.380 336.396,132.600 336.396 C 133.084 336.397,135.600 334.896,135.600 334.606 C 135.600 334.309,135.559 334.327,133.800 335.410 M76.396 337.194 C 78.177 339.443,78.713 339.641,77.123 337.463 C 76.395 336.465,75.650 335.638,75.466 335.625 C 75.283 335.611,75.701 336.318,76.396 337.194 M130.184 337.354 C 128.073 338.459,126.500 339.600,127.087 339.600 C 127.343 339.600,127.673 339.405,127.820 339.167 C 127.968 338.929,128.858 338.404,129.800 338.000 C 130.742 337.596,131.632 337.071,131.780 336.833 C 131.927 336.595,131.992 336.424,131.924 336.454 C 131.856 336.484,131.073 336.889,130.184 337.354 M79.406 340.400 C 80.089 341.340,82.400 343.434,82.400 343.114 C 82.400 343.033,81.563 342.164,80.539 341.183 C 79.516 340.202,79.006 339.850,79.406 340.400 M124.441 340.634 C 123.693 341.165,123.253 341.600,123.463 341.600 C 123.673 341.600,124.455 341.150,125.200 340.600 C 126.935 339.320,126.247 339.351,124.441 340.634 M121.666 342.121 C 121.428 342.407,119.863 343.352,118.187 344.221 C 113.553 346.622,113.289 346.787,114.071 346.794 C 114.441 346.797,114.981 346.573,115.271 346.295 C 115.562 346.018,116.970 345.201,118.400 344.480 C 121.188 343.075,123.285 341.623,122.549 341.609 C 122.301 341.604,121.904 341.834,121.666 342.121 M83.291 343.748 C 83.592 344.050,84.452 344.613,85.200 345.000 C 85.948 345.387,86.808 345.950,87.109 346.252 C 87.410 346.553,87.959 346.797,88.329 346.794 C 89.058 346.788,88.898 346.673,85.681 344.906 C 84.786 344.414,83.941 343.829,83.804 343.606 C 83.666 343.383,83.371 343.200,83.148 343.200 C 82.925 343.200,82.990 343.447,83.291 343.748 M90.400 347.600 C 91.170 348.022,92.070 348.366,92.400 348.366 C 92.730 348.366,92.370 348.022,91.600 347.600 C 90.830 347.178,89.930 346.834,89.600 346.834 C 89.270 346.834,89.630 347.178,90.400 347.600 M110.600 347.622 C 109.578 348.106,109.289 348.377,109.800 348.373 C 110.240 348.369,111.230 348.022,112.000 347.600 C 113.804 346.612,112.697 346.630,110.600 347.622 M94.100 348.676 C 94.485 348.776,95.115 348.776,95.500 348.676 C 95.885 348.575,95.570 348.493,94.800 348.493 C 94.030 348.493,93.715 348.575,94.100 348.676 M98.200 349.246 C 100.275 349.645,104.377 349.633,105.400 349.224 C 105.863 349.040,104.175 348.912,101.400 348.922 C 98.001 348.934,97.067 349.029,98.200 349.246 " stroke="none" fill="#05e164" fill-rule="evenodd"></path><path id="path1" d="M93.200 52.765 C 91.110 53.395,88.860 54.200,88.200 54.553 C 87.540 54.906,86.803 55.196,86.562 55.198 C 86.321 55.199,85.798 55.560,85.400 56.000 C 85.002 56.440,84.513 56.800,84.315 56.800 C 82.755 56.800,74.400 65.729,74.400 67.395 C 74.400 67.674,74.142 68.117,73.826 68.379 C 73.510 68.641,73.130 69.428,72.983 70.128 C 72.835 70.827,72.328 72.030,71.857 72.800 L 71.000 74.200 71.000 200.200 L 71.000 326.200 72.100 328.439 C 72.705 329.670,73.200 330.877,73.200 331.121 C 73.200 331.365,73.650 332.228,74.200 333.038 C 74.750 333.849,75.200 334.757,75.200 335.056 C 75.200 335.355,75.341 335.600,75.514 335.600 C 75.686 335.600,76.127 336.106,76.492 336.725 C 77.235 337.982,81.878 342.630,83.101 343.341 C 83.536 343.593,84.624 344.202,85.519 344.694 C 86.414 345.186,87.250 345.757,87.377 345.964 C 87.505 346.170,88.192 346.464,88.905 346.618 C 89.617 346.772,90.830 347.214,91.600 347.601 C 94.950 349.286,106.856 349.297,110.648 347.620 C 111.566 347.214,112.873 346.760,113.554 346.610 C 114.234 346.461,114.893 346.173,115.019 345.970 C 115.144 345.767,116.181 345.155,117.323 344.609 C 118.465 344.063,120.030 343.215,120.800 342.724 C 121.570 342.234,122.830 341.509,123.600 341.114 C 124.370 340.718,125.720 339.954,126.600 339.415 C 127.480 338.875,128.920 338.071,129.800 337.628 C 132.802 336.116,136.566 333.974,137.184 333.426 C 137.523 333.126,138.430 332.593,139.200 332.243 C 139.970 331.893,141.500 331.070,142.600 330.413 C 143.700 329.757,145.140 328.944,145.800 328.607 C 146.460 328.270,147.720 327.552,148.600 327.011 C 149.480 326.471,150.740 325.768,151.400 325.449 C 152.060 325.131,152.750 324.720,152.933 324.535 C 153.344 324.122,158.890 321.033,160.800 320.154 C 161.570 319.800,162.290 319.382,162.400 319.226 C 162.510 319.070,164.016 318.145,165.747 317.171 C 167.478 316.197,169.728 314.917,170.747 314.326 C 171.766 313.736,172.870 313.138,173.200 312.998 C 173.530 312.857,174.070 312.573,174.400 312.366 C 174.730 312.159,175.765 311.639,176.700 311.209 C 177.635 310.780,178.400 310.256,178.400 310.046 C 178.400 309.836,178.938 309.545,179.595 309.401 C 180.253 309.257,180.895 308.970,181.023 308.764 C 181.150 308.557,181.962 308.027,182.827 307.586 C 184.361 306.803,185.051 305.246,183.900 305.165 C 183.625 305.145,172.150 305.149,158.400 305.172 C 128.497 305.224,125.770 304.942,117.272 300.922 C 111.186 298.043,103.827 290.606,100.902 284.380 C 96.911 275.885,96.800 275.010,96.800 252.019 C 96.800 228.959,96.406 230.021,104.680 230.775 C 107.056 230.991,111.250 231.279,114.000 231.415 C 116.750 231.551,121.070 231.906,123.600 232.203 C 126.130 232.500,130.990 232.863,134.400 233.009 C 137.810 233.154,141.950 233.442,143.600 233.647 C 145.250 233.852,150.250 234.258,154.711 234.550 C 165.143 235.232,164.663 234.890,164.860 241.803 C 165.080 249.543,166.017 250.407,174.698 250.864 C 177.944 251.036,182.050 251.363,183.823 251.592 C 185.595 251.821,192.165 252.276,198.423 252.604 C 204.680 252.931,212.680 253.455,216.200 253.766 C 240.796 255.945,240.139 256.287,240.329 241.217 C 240.526 225.727,241.159 226.472,227.000 225.547 C 219.780 225.075,219.790 225.076,213.000 224.416 C 210.580 224.181,205.720 223.818,202.200 223.610 C 198.680 223.402,193.820 223.056,191.400 222.841 C 188.980 222.625,183.850 222.249,180.000 222.004 C 176.150 221.759,171.740 221.394,170.200 221.192 C 168.660 220.991,163.800 220.638,159.400 220.409 C 155.000 220.179,149.240 219.739,146.600 219.430 C 143.960 219.122,139.100 218.753,135.800 218.611 C 132.500 218.468,127.370 218.082,124.400 217.752 C 121.430 217.423,116.382 217.006,113.182 216.827 C 104.611 216.346,99.609 213.458,97.715 207.897 C 96.658 204.792,96.395 133.469,97.420 127.800 C 99.656 115.435,107.022 105.697,118.610 99.784 C 120.533 98.803,122.328 98.000,122.601 98.000 C 122.873 98.000,124.244 97.605,125.648 97.122 C 128.164 96.257,128.601 96.242,156.625 96.092 C 182.813 95.952,187.717 95.758,185.713 94.941 C 185.445 94.831,184.586 94.307,183.803 93.776 C 183.020 93.245,181.941 92.700,181.406 92.566 C 180.871 92.431,180.215 92.059,179.948 91.738 C 179.682 91.417,178.909 90.900,178.232 90.591 C 177.554 90.281,176.280 89.579,175.400 89.031 C 174.520 88.483,173.080 87.669,172.200 87.223 C 171.320 86.776,169.700 85.873,168.600 85.215 C 167.500 84.558,166.060 83.739,165.400 83.396 C 164.740 83.053,163.480 82.335,162.600 81.802 C 161.720 81.269,160.460 80.547,159.800 80.198 C 159.140 79.850,157.700 79.040,156.600 78.400 C 155.500 77.760,154.046 76.968,153.368 76.641 C 152.691 76.314,151.904 75.766,151.619 75.423 C 151.335 75.080,150.936 74.800,150.733 74.800 C 150.531 74.800,148.348 73.656,145.882 72.257 C 143.417 70.859,141.019 69.594,140.553 69.447 C 140.087 69.300,139.384 68.824,138.991 68.390 C 138.598 67.955,138.110 67.600,137.908 67.600 C 137.420 67.600,129.624 63.162,129.359 62.734 C 129.246 62.550,128.837 62.400,128.452 62.400 C 128.066 62.400,127.388 62.062,126.945 61.649 C 126.501 61.236,125.702 60.765,125.169 60.602 C 124.636 60.439,123.924 60.064,123.586 59.769 C 123.248 59.473,121.898 58.664,120.586 57.970 C 119.274 57.277,117.918 56.462,117.574 56.160 C 117.230 55.857,116.330 55.402,115.574 55.148 C 114.818 54.894,113.930 54.473,113.600 54.211 C 110.455 51.716,99.300 50.926,93.200 52.765 M166.502 146.016 C 162.843 146.811,162.396 148.350,162.419 160.084 C 162.447 173.917,162.483 173.971,172.458 174.733 C 175.836 174.991,180.040 175.374,181.800 175.582 C 183.560 175.791,188.652 176.144,193.116 176.367 C 197.579 176.590,201.404 176.879,201.615 177.009 C 201.826 177.140,206.274 177.500,211.500 177.809 C 216.725 178.119,224.150 178.644,228.000 178.976 C 237.265 179.776,249.454 180.694,257.600 181.207 C 261.230 181.436,267.170 181.890,270.800 182.217 C 282.556 183.274,286.946 183.592,289.858 183.596 C 295.114 183.603,300.340 185.811,302.644 188.999 C 305.746 193.288,305.574 191.766,305.587 215.024 C 305.602 238.560,305.517 237.869,308.227 236.487 C 312.331 234.393,313.185 233.900,313.625 233.370 C 313.885 233.057,314.423 232.800,314.820 232.800 C 315.218 232.800,315.790 232.553,316.091 232.252 C 316.392 231.950,317.260 231.385,318.020 230.996 C 318.779 230.607,319.490 230.178,319.600 230.044 C 319.710 229.910,320.430 229.481,321.200 229.092 C 321.970 228.702,323.320 227.946,324.200 227.412 C 325.080 226.878,326.250 226.252,326.800 226.021 C 327.350 225.790,328.070 225.425,328.400 225.210 C 329.150 224.722,335.295 221.193,336.697 220.446 C 345.640 215.676,350.548 199.507,345.729 190.691 C 342.767 185.273,338.969 181.320,335.026 179.554 C 334.572 179.351,333.390 178.657,332.400 178.013 C 331.410 177.369,329.880 176.475,329.000 176.027 C 328.120 175.578,326.500 174.673,325.400 174.015 C 324.300 173.358,322.860 172.544,322.200 172.207 C 321.540 171.870,320.280 171.158,319.400 170.625 C 318.520 170.091,317.260 169.365,316.600 169.010 C 315.940 168.655,314.552 167.877,313.517 167.282 C 306.065 163.001,305.600 162.975,305.600 166.849 C 305.600 169.534,304.769 170.765,302.900 170.850 C 300.279 170.968,289.525 170.333,279.000 169.439 C 275.040 169.103,268.920 168.629,265.400 168.387 C 261.880 168.144,257.470 167.791,255.600 167.601 C 253.730 167.412,249.860 167.148,247.000 167.015 C 237.781 166.588,238.056 166.806,237.903 159.775 C 237.699 150.450,237.362 150.273,217.800 149.207 C 213.400 148.968,208.090 148.605,206.000 148.401 C 203.910 148.197,199.950 147.922,197.200 147.791 C 192.735 147.577,172.782 146.206,169.200 145.867 C 168.430 145.794,167.216 145.861,166.502 146.016 " stroke="none" fill="#05133f" fill-rule="evenodd"></path><path id="path2" d="M0.000 200.000 L 0.000 400.000 200.000 400.000 L 400.000 400.000 400.000 200.000 L 400.000 0.000 200.000 0.000 L 0.000 0.000 0.000 200.000 M110.209 52.590 C 111.823 53.103,113.652 53.789,114.272 54.116 C 114.893 54.443,115.850 54.913,116.400 55.161 C 116.950 55.410,118.210 56.147,119.200 56.800 C 120.190 57.453,121.270 58.112,121.600 58.264 C 122.737 58.789,130.200 62.956,130.400 63.178 C 130.510 63.300,131.230 63.717,132.000 64.106 C 133.448 64.835,135.575 66.044,138.000 67.515 C 138.770 67.982,140.120 68.728,141.000 69.172 C 141.880 69.616,142.870 70.155,143.200 70.368 C 143.530 70.581,145.036 71.441,146.547 72.278 C 148.058 73.115,150.128 74.294,151.147 74.897 C 152.166 75.500,153.360 76.188,153.800 76.425 C 154.240 76.662,155.500 77.373,156.600 78.005 C 157.700 78.637,159.320 79.523,160.200 79.973 C 161.080 80.423,162.520 81.247,163.400 81.805 C 164.280 82.362,165.450 83.037,166.000 83.305 C 166.550 83.573,167.604 84.195,168.343 84.688 C 169.082 85.180,170.612 86.053,171.743 86.628 C 174.785 88.174,176.324 89.039,176.938 89.549 C 177.240 89.799,178.817 90.713,180.443 91.581 C 185.834 94.457,186.598 94.904,186.885 95.354 C 187.091 95.676,199.408 95.856,231.085 96.000 C 263.214 96.146,275.215 96.324,275.802 96.662 C 276.243 96.915,277.659 97.318,278.948 97.557 C 284.183 98.524,292.855 104.196,296.748 109.198 C 300.199 113.631,300.810 114.540,301.840 116.772 C 302.406 117.997,303.045 119.331,303.260 119.735 C 304.982 122.977,305.350 126.961,305.578 144.867 C 305.700 154.474,305.948 162.484,306.130 162.667 C 306.479 163.019,310.705 165.435,313.400 166.824 C 315.875 168.100,317.542 169.054,318.095 169.512 C 318.373 169.742,319.860 170.610,321.400 171.440 C 326.348 174.108,328.378 175.257,333.000 178.007 C 334.100 178.661,335.270 179.320,335.600 179.471 C 336.564 179.912,340.295 182.723,341.496 183.914 C 348.950 191.302,350.099 205.690,343.900 214.000 C 341.528 217.180,335.763 221.849,333.300 222.585 C 332.805 222.733,332.400 223.002,332.400 223.184 C 332.400 223.365,331.725 223.817,330.900 224.187 C 330.075 224.558,328.562 225.343,327.537 225.931 C 326.513 226.519,324.713 227.554,323.537 228.232 C 322.362 228.909,321.130 229.587,320.800 229.738 C 320.470 229.889,319.390 230.535,318.400 231.172 C 317.410 231.810,315.675 232.800,314.545 233.373 C 313.414 233.946,311.835 234.859,311.034 235.403 C 310.234 235.946,309.141 236.500,308.606 236.634 C 308.071 236.769,307.423 237.131,307.167 237.439 C 306.911 237.748,306.468 238.000,306.182 238.000 C 305.896 238.000,305.153 238.411,304.531 238.914 C 303.909 239.417,302.050 240.521,300.400 241.368 C 298.750 242.215,296.680 243.397,295.800 243.995 C 294.920 244.592,292.615 245.851,290.678 246.793 C 288.741 247.735,286.545 248.921,285.796 249.428 C 284.553 250.272,277.292 254.492,274.409 256.047 C 273.749 256.403,272.982 256.873,272.705 257.093 C 272.427 257.312,270.220 258.534,267.800 259.809 C 265.380 261.083,262.500 262.685,261.400 263.367 C 259.124 264.780,258.126 265.338,254.203 267.398 C 252.665 268.205,251.311 269.021,251.194 269.210 C 251.077 269.399,249.456 270.349,247.591 271.321 C 244.735 272.811,242.717 273.936,235.600 278.008 C 229.900 281.268,227.125 282.800,226.918 282.800 C 226.778 282.800,226.372 283.064,226.015 283.386 C 225.659 283.709,224.385 284.482,223.184 285.104 C 219.539 286.993,207.840 293.648,207.200 294.196 C 206.870 294.479,205.430 295.294,204.000 296.007 C 200.310 297.847,195.142 300.806,194.200 301.618 C 193.760 301.998,192.950 302.440,192.400 302.601 C 191.850 302.763,191.130 303.131,190.799 303.419 C 190.469 303.708,189.749 304.145,189.199 304.389 C 188.650 304.634,187.840 305.053,187.400 305.321 C 184.481 307.097,181.032 309.108,178.800 310.334 C 177.370 311.120,175.300 312.266,174.200 312.881 C 173.100 313.496,171.750 314.228,171.200 314.509 C 170.650 314.789,169.149 315.644,167.864 316.409 C 163.808 318.824,162.654 319.479,160.545 320.561 C 159.414 321.141,157.884 322.018,157.145 322.511 C 156.405 323.004,155.350 323.627,154.800 323.895 C 154.250 324.163,153.080 324.838,152.200 325.395 C 151.320 325.953,149.880 326.777,149.000 327.227 C 148.120 327.677,146.680 328.477,145.800 329.005 C 144.920 329.534,143.480 330.343,142.600 330.804 C 141.720 331.264,140.100 332.161,139.000 332.797 C 137.900 333.432,136.640 334.155,136.200 334.404 C 135.760 334.652,134.500 335.380,133.400 336.022 C 132.300 336.663,130.680 337.553,129.800 338.000 C 128.920 338.446,127.480 339.250,126.600 339.786 C 125.720 340.323,124.550 340.994,124.000 341.279 C 123.450 341.564,121.748 342.562,120.218 343.498 C 118.689 344.434,117.231 345.200,116.980 345.200 C 116.728 345.200,116.107 345.560,115.600 346.000 C 115.093 346.440,114.426 346.800,114.119 346.800 C 113.812 346.800,112.984 347.102,112.280 347.470 C 110.956 348.164,106.918 349.065,103.355 349.462 C 100.675 349.761,92.212 348.525,90.316 347.557 C 89.500 347.141,88.568 346.800,88.245 346.800 C 87.921 346.800,87.410 346.553,87.109 346.252 C 86.808 345.950,85.948 345.387,85.200 345.000 C 84.452 344.613,83.592 344.050,83.291 343.748 C 82.990 343.447,82.603 343.200,82.433 343.200 C 81.966 343.200,76.913 337.961,75.856 336.381 C 73.325 332.599,72.800 331.717,72.800 331.257 C 72.800 330.981,72.444 329.975,72.009 329.020 C 70.431 325.555,70.407 323.612,70.403 199.964 C 70.400 78.618,70.447 74.315,71.802 72.171 C 72.090 71.715,72.551 70.588,72.827 69.666 C 73.104 68.745,73.570 67.791,73.865 67.546 C 74.159 67.302,74.400 66.890,74.400 66.631 C 74.400 65.971,77.962 61.623,80.347 59.372 C 87.814 52.324,100.380 49.471,110.209 52.590 " stroke="none" fill="#fbfbfb" fill-rule="evenodd"></path></g></svg>