

<svg width="100%" height="100%" viewBox="0 0 81 102" version="1.1" xmlns="http://www.w3.org/2000/svg" xmlns:xlink="http://www.w3.org/1999/xlink" xml:space="preserve" style="fill-rule:evenodd;clip-rule:evenodd;stroke-linejoin:round;stroke-miterlimit:2">
    <g transform="matrix(1,0,0,1,-61,-125.057)">
        <g transform="matrix(6.05327e-17,0.988574,-0.733333,4.49037e-17,229.667,57.3444)">
            <path d="M111.515,126.97C113.417,123.167 116.597,120.886 120,120.886C123.403,120.886 126.583,123.167 128.485,126.97C139.397,148.795 158.323,186.647 169.946,209.892C171.923,213.846 172.121,218.949 170.459,223.159C168.798,227.369 165.549,230 162.012,230C139.407,230 100.831,230 78.15,230C74.581,230 71.303,227.345 69.627,223.097C67.95,218.849 68.15,213.701 70.145,209.711C81.775,186.45 100.631,148.738 111.515,126.97Z" style="fill:rgb(19,18,193)"></path>
        </g>
        <path d="M61,176.468C66.798,174.825 73.083,174.598 79.356,176.145C88.938,178.509 91.79,185.187 99.69,189.854C106.813,194.061 115.26,194.988 123.224,193.347L75.746,225.349C72.846,227.303 69.104,227.498 66.017,225.856C62.929,224.214 61,221.002 61,217.505L61,176.468Z" style="fill:rgb(1,84,250)"></path>
        <path d="M61,205.011C64.418,203.712 68.126,203 72,203C80.863,203 88.862,206.727 94.514,212.698L75.746,225.349C72.846,227.303 69.104,227.498 66.017,225.856C62.929,224.214 61,221.002 61,217.505L61,205.011Z" style="fill:rgb(20,191,243)"></path>
    </g>
</svg>
