
<svg xmlns="http://www.w3.org/2000/svg" version="1.1" id="Layer_1" x="0px" y="0px" width="752.23633" height="207.67607" viewBox="0 0 752.23633 207.67608" enable-background="new 0 0 1000 285.357" xml:space="preserve"><defs id="defs21579">
	
	
	
	
	
	
	
	
	
	
	
	
	
	
</defs>

<g id="layer10" transform="translate(-136.11413,-38.84108)"><path id="path21642" style="fill:#ffffff;fill-opacity:1;stroke:none;stroke-width:0.727772" d="M 100.48242,0 V 108.61133 H 133.7793 V 73.695312 h 5.11132 l 20.4375,34.916018 H 197.0957 L 174.42578,69.876953 C 187.42452,63.035893 191.98242,51.467914 191.98242,37.619141 191.98242,14.759822 175.48327,0 148.48438,0 Z m 194.3711,3.3730469 V 25.953125 h -8.5879 v 28.314453 h 8.5879 l 0.002,24.513672 c 0,19.93732 13.97589,30.32617 30.33984,30.32617 h 18.90235 V 80.425781 c -2.85068,0.0437 -8.62054,0.04297 -11.78125,0.04297 -2.47516,0 -4.5,-2.02412 -4.5,-4.5 V 54.267578 h 13.11132 V 25.953125 H 327.81641 V 3.3730469 Z m 60.29296,0 V 25.953125 h -8.58789 v 28.314453 h 8.58789 V 78.78125 c 0,19.93732 13.97566,30.32617 30.3418,30.32617 h 18.90039 V 80.425781 c -2.85069,0.0437 -8.61908,0.04297 -11.78125,0.04297 -2.47733,0 -4.49804,-2.02412 -4.49804,-4.5 V 54.267578 h 13.10937 V 25.953125 H 388.10938 V 3.3730469 Z m 94.22266,1.1542969 c -23.41752,0 -43.22033,16.8874342 -43.2207,44.7792972 -3.6e-4,27.220849 19.97217,43.099609 43.89258,43.099609 17.54222,0 30.47352,-3.841083 39.66601,-14.314453 L 469.76758,59.119141 c -6.11983,4.639549 -10.89908,6.550781 -17.45703,6.550781 -5.95027,0 -13.5705,-2.340742 -16.46485,-9.742188 h 54.89063 C 493.76095,22.833757 474.4649,4.5273437 449.36914,4.5273438 Z M 550.41406,23.445312 c -8.16997,0 -16.16179,3.6437 -21.5,10.085938 v -7.416016 h -33.29297 v 82.496096 h 33.29297 V 65.589844 c 0,-16.733659 18.58985,-14.476456 18.58985,-2.423828 v 45.445314 h 33.20117 V 56.351562 c 0,-16.131067 -9.0328,-32.90625 -30.29102,-32.90625 z m -312.48828,0.167969 c -26.03968,0 -46.1289,15.767031 -46.1289,43.460938 -10e-6,27.69391 20.08922,43.457031 46.1289,43.457031 26.0375,0 46.12891,-14.102341 46.12891,-43.457031 0,-29.354683 -20.09141,-43.460938 -46.12891,-43.460938 z M 133.7793,25.585938 h 9.55664 c 8.40068,0 14.10351,4.592415 14.10351,11.261718 0,6.825046 -5.2276,11.261719 -14.10351,11.261719 h -9.55664 z m 315.00586,3.800781 c 6.15259,0 11.15036,3.681506 12.75,10.080078 h -25.35743 c 2.38054,-6.625637 7.26923,-10.080078 12.60743,-10.080078 z m -216.07227,8.65039 c 1.84826,0.06575 3.63544,0.706608 4.92773,2.007813 1.86902,1.881888 2.24017,4.502503 1.80079,7.021484 -0.24764,1.419721 -0.68017,2.815013 -1.02344,4.210938 -0.74038,3.010735 -1.00336,6.37696 2.07812,8.1875 3.26906,1.920756 5.92425,0.114247 7.19532,-3.080078 0.64806,-1.628621 1.07322,-3.415291 1.79687,-4.988282 2.18016,-4.738975 9.04083,-5.759874 12.33594,-1.626953 2.3837,2.989785 2.5697,7.706959 0.16601,10.746094 -2.94253,3.720415 -7.08888,2.16355 -11.44335,3.15625 -1.93613,0.44138 -3.12528,2.115634 -3.19727,3.933594 -0.072,1.81796 0.9732,3.779635 3.50781,4.796875 3.41004,1.36858 7.17802,1.269249 10.64649,2.412109 6.24251,2.05691 8.09534,7.372765 6.72851,11.203125 -1.36684,3.83036 -5.95332,6.175213 -12.5918,2.289063 -3.92905,-2.30006 -4.86027,-5.191449 -7.5996,-8.205079 -1.89366,-2.08329 -3.96585,-2.439334 -5.29102,-1.615234 -1.32518,0.8241 -1.90336,2.828341 -0.80664,5.462891 0.81373,1.95476 2.24382,3.939825 2.20312,6.140625 -0.0688,3.72146 -3.27906,5.666342 -6.59375,5.826172 -3.3147,0.15983 -6.73383,-1.465396 -7.21679,-4.884766 -0.53402,-3.78091 1.4236,-6.447941 1.34179,-9.806641 -0.0489,-2.00973 -1.21087,-3.063422 -2.625,-3.263671 -1.41412,-0.200261 -3.08046,0.452911 -4.13476,1.857421 -1.24789,1.66241 -2.54495,3.439949 -4.27539,4.642579 -3.52151,2.44739 -8.91583,2.664269 -11.06836,-1.619141 -1.17776,-2.34368 -0.96582,-5.494095 0.67187,-7.578125 1.91384,-2.43543 4.90605,-2.230452 7.69922,-2.169922 1.20303,0.0261 2.43079,0.09925 3.63086,0.06055 1.64261,-0.0529 2.96351,-0.561586 3.09571,-2.410156 0.16618,-2.32375 -1.83938,-3.249714 -3.72461,-3.839844 -2.60658,-0.81593 -7.174,-1.463123 -9.23633,-3.101563 -4.13756,-3.287121 -3.60495,-8.990595 1.48047,-10.691406 1.65812,-0.554554 3.77947,-0.529164 5.39843,0.154297 2.38743,1.007881 4.04202,3.868469 5.38868,5.951172 1.43489,2.219153 2.74381,3.128766 5.48242,2.728515 3.25678,-0.475989 3.84852,-3.067383 2.76758,-5.77539 -0.87004,-2.179656 -2.58628,-3.345774 -4.50586,-4.503906 -3.37405,-2.035658 -4.57498,-6.108579 -2.75,-9.576172 1.40869,-2.676622 4.6598,-4.162316 7.74023,-4.052735 z M 0,96.419922 v 31.505858 h 28.109375 v 77.10742 h 31.935547 v -77.10742 h 28.27539 V 96.419922 Z m 416.6875,3.287109 v 22.578129 h -8.58789 v 28.3125 h 8.58789 l 0.002,24.51367 c 0,19.94022 13.97175,30.32812 30.33789,30.32812 h 18.90235 v -28.68164 c -2.85068,0.0444 -8.61882,0.0449 -11.77735,0.0449 -2.4766,0 -4.50195,-2.02461 -4.50195,-4.50195 v -21.70312 h 13.11133 v -28.3125 H 449.65039 V 99.707031 Z m 323.00391,13.345699 c -3.47761,0 -6.42638,1.22587 -8.83985,3.7168 -2.3799,2.45628 -3.57617,5.43054 -3.57617,8.98047 0,3.49251 1.18628,6.47922 3.57617,8.92578 2.40361,2.4606 5.36224,3.67188 8.83985,3.67188 3.47877,0 6.4688,-1.22536 8.88671,-3.67188 2.4317,-2.46045 3.65871,-5.43327 3.65821,-8.92578 -5e-4,-3.54878 -1.23628,-6.50924 -3.65821,-8.98047 -2.42765,-2.47707 -5.40794,-3.7168 -8.88671,-3.7168 z m -246.5,0.01 -6.11133,5.07617 7.13476,6.22071 c -6.68531,-1.28234 -13.44863,1.01941 -17.64843,7.38281 -0.7209,1.09228 -1.02409,1.71853 -0.96289,2.03515 0.0612,0.31663 0.48208,0.29657 1.22656,0.17774 3.4538,-0.55128 7.84975,-1.08794 11.80664,-1.05664 -11.00828,7.32794 -18.11232,18.39765 -18.04102,32.52344 0.12591,24.94043 19.89158,41.00585 43.92188,41.00585 23.80906,0 49.57446,-17.45975 49.0918,-43.03711 -0.51674,-27.38196 -22.35416,-44.19467 -50.84571,-39.85351 0.016,-2.41329 0.80739,-4.28266 2.79297,-5.3418 0.98737,-0.52668 1.65039,-0.50224 1.65039,-0.88672 0,-0.2045 -0.13642,-0.42911 -0.67187,-0.85547 -5.83402,-4.64548 -14.20256,-0.0731 -16.86328,6.21485 z m 246.5,3.28906 c 2.56488,0 4.69737,0.93269 6.46093,2.7461 1.76931,1.81932 2.64454,4.03545 2.64454,6.65429 0,2.60503 -0.86738,4.79662 -2.64454,6.59571 -1.7556,1.77727 -3.89605,2.66015 -6.46093,2.66015 -2.5086,0 -4.68469,-0.87375 -6.41602,-2.66015 -1.73365,-1.78879 -2.60742,-3.99068 -2.60742,-6.59571 0,-2.61884 0.8818,-4.8452 2.60742,-6.65429 1.73938,-1.82351 3.90742,-2.7461 6.41602,-2.7461 z m -129.64258,2.94336 c -23.41388,0 -43.21448,16.88889 -43.21485,44.7793 -3.6e-4,27.22159 19.9673,43.09961 43.89063,43.09961 17.54294,0 30.46989,-3.84155 39.66601,-14.31055 L 630.45117,173.8889 c -6.1242,4.63955 -10.8964,6.55078 -17.45508,6.55078 -5.95099,0 -13.57562,-2.34343 -16.4707,-9.74414 h 54.89649 c 3.02024,-33.09253 -16.27729,-51.40039 -41.37305,-51.40039 z m 125,0.41211 v 11.49219 h 3.13281 v -3.14649 h 1.55274 l 2.20312,3.14649 h 3.52148 l -2.70312,-3.67188 c 1.6062,-0.72216 2.38281,-1.96917 2.38281,-3.74414 0,-2.74512 -2.13401,-4.07617 -4.89062,-4.07617 z m -43.65821,0.0371 c -19.81358,0 -36.50228,13.41846 -36.50195,28.74024 4e-4,18.37987 19.92857,27.38482 36.01758,26.98828 5.08854,-0.12542 6.48437,0.44946 6.48437,2.81836 0,2.41766 -3.25814,4.21875 -7.58984,4.21875 -8.06589,0 -15.22557,-2.60479 -23.55273,-8.11329 l -13.14844,21.98829 c 8.25293,8.19107 25.83568,11.27301 37.19922,11.29101 22.07184,0.035 37.47461,-13.91132 37.47461,-29.68359 0,-20.86159 -16.44855,-27.39789 -38.41016,-27.52539 -3.6229,-0.021 -5.2168,-1.20535 -5.2168,-3.46289 0,-1.93733 2.96155,-3.40735 5.47657,-3.43555 3.77173,-0.0423 13.28705,1.71216 22.67968,6.375 l 12.51172,-20.23438 c -8.69833,-6.01358 -20.53643,-9.96484 -33.42383,-9.96484 z m -569.15429,0.11328 c -25.626312,0 -45.396486,15.76508 -45.396486,43.45899 0,27.69391 19.769444,43.45898 45.396486,43.45898 25.62776,0 45.39844,-14.1043 45.39844,-43.45898 0,-29.35469 -19.77141,-43.45899 -45.39844,-43.45899 z m 226.80078,0 c -21.61338,0 -38.28942,16.80943 -38.28906,43.45899 3.6e-4,27.23032 16.67568,43.45898 38.28906,43.45898 8.31697,0 15.75681,-3.91245 21.06445,-11.03516 v 8.85157 h 32.25391 v -82.49805 h -32.25391 v 9.1582 c -5.06675,-7.09578 -12.63831,-11.39453 -21.06445,-11.39453 z m -123.7793,0.0176 c -7.46839,0 -14.90858,2.67979 -20.20312,7.9707 v -5.75195 h -32.25586 v 82.49805 h 32.25586 v -43.85157 c 0,-15.93966 17.24023,-13.19443 17.24023,-1.59375 v 45.44532 h 32.56446 v -43.85157 c 0,-15.93966 17.59179,-13.19443 17.59179,-1.59375 v 45.44532 h 33.08985 v -52.25782 c 0,-19.07345 -11.52181,-32.45898 -32.7793,-32.45898 -8.25366,0 -16.79774,3.78024 -22.39649,10.38477 -4.5282,-7.47931 -12.64432,-10.38477 -25.10742,-10.38477 z m 512.92383,2.53516 h 1.50977 c 1.51207,0 2.30273,0.45834 2.30273,1.37109 0,0.95749 -0.78952,1.4707 -2.30273,1.4707 h -1.50977 z m -128.7168,21.74609 c 6.15259,0 11.15472,3.67955 12.75,10.07813 h -25.35351 c 2.37691,-6.62855 7.26967,-10.07813 12.60351,-10.07813 z m -487.13281,4.42578 c 8.03314,0 14.23242,4.38546 14.23242,13.51172 0,9.12481 -6.19928,13.51172 -14.23242,13.51172 -8.03533,0 -14.23242,-4.90218 -14.23242,-13.51172 0,-8.611 6.19709,-13.51172 14.23242,-13.51172 z m 234.07422,1.35938 c 7.03464,0 13.11133,5.30523 13.11133,12.99414 0,7.68964 -4.80163,13.45898 -13.11133,13.45898 -8.3097,0 -13.34375,-5.76934 -13.34375,-13.45898 0,-7.68891 6.30983,-12.99414 13.34375,-12.99414 z" transform="translate(136.11413,38.84108)"></path></g></svg>
