<svg xmlns="http://www.w3.org/2000/svg" width="250" height="250" viewBox="0 0 66.145832 66.145835" version="1.1" id="svg1257">
  <defs id="defs1251"></defs>
  <g id="layer1">
    <g id="layer1-7" transform="matrix(0.62996032,0,0,0.62996027,46.49411,37.721634)">
      <path style="fill:#ff143c;fill-opacity:1;stroke-width:0.291667" d="m -73.804823,45.120615 c 0,-34.999997 0,-69.999999 0,-105 h 105 v 105 c -35.0000029,0 -70.000002,0 -105,0 z" id="path36"></path>
    </g>
    <path style="fill:#9000ff;fill-opacity:1;stroke:none;stroke-width:0.165365px;stroke-linecap:butt;stroke-linejoin:miter;stroke-opacity:1" d="m 16.047448,27.583437 11.079095,11.106457 c 0,0 0.892173,-4.02561 0.893548,-5.87668 8.34e-4,-1.851086 -0.88543,-5.229777 -0.88543,-5.229777 0,0 -3.695737,-0.889497 -5.543606,-0.889497 -1.847869,0 -5.543607,0.889497 -5.543607,0.889497 z" id="path992-3-4"></path>
    <path style="fill:#9000ff;fill-opacity:1;stroke:none;stroke-width:0.165365px;stroke-linecap:butt;stroke-linejoin:miter;stroke-opacity:1" d="M 27.134649,52.552364 40.64258,66.145831 H 66.145834 L 66.14582,36.767474 46.54556,17.198667 c 0,0 0.61982,4.02763 1.27341,5.758417 0.65358,1.730794 2.64807,4.626344 2.64807,4.626344 0,0 -3.80186,-0.727769 -5.66237,-0.727769 -1.8605,0 -5.50064,0.727769 -5.50064,0.727769 0,0 -0.924298,6.917086 -0.924298,11.078576 0,4.16149 0.527175,13.393956 0.527175,13.393956 0,0 -4.006801,-0.612232 -5.960561,-0.248203 -1.95376,0.364029 -5.811697,0.744606 -5.811697,0.744607 z" id="path1016-2-2"></path>
    <path style="fill:#ffffff;fill-opacity:1;stroke-width:0.374685" d="M 44.55727,16.069579 H 16.047392 V 27.58342 H 27.134649 V 52.552364 H 39.30403 l -5e-5,-24.968944 h 11.163 L 46.71284,17.567536 c -0.33766,-0.897837 -1.19546,-1.493938 -2.15557,-1.497957 z" id="path770-4-0-7-1"></path>
  </g>
</svg>